  0
SECTION
  2
HEADER
  9
$ACADVER
  1
AC1014
  9
$HANDSEED
  5
FFFF
  9
$MEASUREMENT
 70
     1
  0
ENDSEC
  0
SECTION
  2
TABLES
  0
TABLE
  2
VPORT
  5
8
330
0
100
AcDbSymbolTable
 70
     4
  0
VPORT
  5
2E
330
8
100
AcDbSymbolTableRecord
100
AcDbViewportTableRecord
  2
*ACTIVE
 70
     0
 10
0.0
 20
0.0
 11
1.0
 21
1.0
 12
210.0
 22
148.5
 13
0.0
 23
0.0
 14
10.0
 24
10.0
 15
10.0
 25
10.0
 16
0.0
 26
0.0
 36
1.0
 17
0.0
 27
0.0
 37
0.0
 40
341.0
 41
1.24
 42
50.0
 43
0.0
 44
0.0
 50
0.0
 51
0.0
 71
     0
 72
   100
 73
     1
 74
     3
 75
     0
 76
     0
 77
     0
 78
     0
  0
ENDTAB
  0
TABLE
  2
LTYPE
  5
5
330
0
100
AcDbSymbolTable
 70
     1
  0
LTYPE
  5
14
330
5
100
AcDbSymbolTableRecord
100
AcDbLinetypeTableRecord
  2
BYBLOCK
 70
     0
  3

 72
    65
 73
     0
 40
0.0
  0
LTYPE
  5
15
330
5
100
AcDbSymbolTableRecord
100
AcDbLinetypeTableRecord
  2
BYLAYER
 70
     0
  3

 72
    65
 73
     0
 40
0.0
  0
LTYPE
  5
16
330
5
100
AcDbSymbolTableRecord
100
AcDbLinetypeTableRecord
  2
CONTINUOUS
 70
     0
  3
Solid line
 72
    65
 73
     0
 40
0.0
  0
ENDTAB
  0
TABLE
  2
LAYER
  5
2
100
AcDbSymbolTable
 70
3
  0
LAYER
  5
50
100
AcDbSymbolTableRecord
100
AcDbLayerTableRecord
  2
0
 70
0
  6
CONTINUOUS
  0
LAYER
  5
51
100
AcDbSymbolTableRecord
100
AcDbLayerTableRecord
  2
none
 70
0
  6
CONTINUOUS
  0
LAYER
  5
52
100
AcDbSymbolTableRecord
100
AcDbLayerTableRecord
  2
Body
 70
0
  6
CONTINUOUS
  0
ENDTAB
  0
TABLE
  2
STYLE
  5
3
330
0
100
AcDbSymbolTable
 70
     1
  0
STYLE
  5
11
330
3
100
AcDbSymbolTableRecord
100
AcDbTextStyleTableRecord
  2
STANDARD
 70
     0
 40
0.0
 41
1.0
 50
0.0
 71
     0
 42
2.5
  3
txt
  4

  0
ENDTAB
  0
TABLE
  2
VIEW
  5
6
330
0
100
AcDbSymbolTable
 70
     0
  0
ENDTAB
  0
TABLE
  2
UCS
  5
7
330
0
100
AcDbSymbolTable
 70
     0
  0
ENDTAB
  0
TABLE
  2
APPID
  5
9
330
0
100
AcDbSymbolTable
 70
     2
  0
APPID
  5
12
330
9
100
AcDbSymbolTableRecord
100
AcDbRegAppTableRecord
  2
ACAD
 70
     0
  0
ENDTAB
  0
TABLE
  2
DIMSTYLE
  5
A
330
0
100
AcDbSymbolTable
 70
     1
  0
DIMSTYLE
105
27
330
A
100
AcDbSymbolTableRecord
100
AcDbDimStyleTableRecord
  2
ISO-25
 70
     0
  3

  4

  5

  6

  7

 40
1.0
 41
2.5
 42
0.625
 43
3.75
 44
1.25
 45
0.0
 46
0.0
 47
0.0
 48
0.0
140
2.5
141
2.5
142
0.0
143
0.03937007874016
144
1.0
145
0.0
146
1.0
147
0.625
 71
     0
 72
     0
 73
     0
 74
     0
 75
     0
 76
     0
 77
     1
 78
     8
170
     0
171
     3
172
     1
173
     0
174
     0
175
     0
176
     0
177
     0
178
     0
270
     2
271
     2
272
     2
273
     2
274
     3
340
11
275
     0
280
     0
281
     0
282
     0
283
     0
284
     8
285
     0
286
     0
287
     3
288
     0
  0
ENDTAB
  0
TABLE
  2
BLOCK_RECORD
  5
1
330
0
100
AcDbSymbolTable
 70
     1
  0
BLOCK_RECORD
  5
1F
330
1
100
AcDbSymbolTableRecord
100
AcDbBlockTableRecord
  2
*MODEL_SPACE
  0
BLOCK_RECORD
  5
1B
330
1
100
AcDbSymbolTableRecord
100
AcDbBlockTableRecord
  2
*PAPER_SPACE
  0
ENDTAB
  0
ENDSEC
  0
SECTION
  2
BLOCKS
  0
BLOCK
  5
20
330
1F
100
AcDbEntity
  8
0
100
AcDbBlockBegin
  2
*MODEL_SPACE
 70
     0
 10
0.0
 20
0.0
 30
0.0
  3
*MODEL_SPACE
  1

  0
ENDBLK
  5
21
330
1F
100
AcDbEntity
  8
0
100
AcDbBlockEnd
  0
BLOCK
  5
1C
330
1B
100
AcDbEntity
 67
     1
  8
0
100
AcDbBlockBegin
  2
*PAPER_SPACE
  1

  0
ENDBLK
  5
1D
330
1B
100
AcDbEntity
 67
     1
  8
0
100
AcDbBlockEnd
  0
ENDSEC
  0
SECTION
  2
ENTITIES
  0
LWPOLYLINE
  5
100
100
AcDbEntity
  8
Body
 62
7
100
AcDbPolyline
 90
2
 70
0
 10
367.343394
 20
759.942938
 30
0.0
 10
367.343394
 20
618.210978
 30
0.0
  0
LWPOLYLINE
  5
101
100
AcDbEntity
  8
Body
 62
7
100
AcDbPolyline
 90
2
 70
0
 10
353.693398
 20
618.210978
 30
0.0
 10
367.343394
 20
618.210978
 30
0.0
  0
LWPOLYLINE
  5
102
100
AcDbEntity
  8
Body
 62
7
100
AcDbPolyline
 90
2
 70
0
 10
353.693398
 20
618.210978
 30
0.0
 10
339.000902
 20
614.272729
 30
0.0
  0
LWPOLYLINE
  5
103
100
AcDbEntity
  8
Body
 62
7
100
AcDbPolyline
 90
2
 70
0
 10
339.000902
 20
731.596471
 30
0.0
 10
339.000902
 20
614.272729
 30
0.0
  0
LWPOLYLINE
  5
104
100
AcDbEntity
  8
Body
 62
7
100
AcDbPolyline
 90
2
 70
0
 10
339.000902
 20
759.942938
 30
0.0
 10
339.000902
 20
731.596471
 30
0.0
  0
LWPOLYLINE
  5
105
100
AcDbEntity
  8
Body
 62
7
100
AcDbPolyline
 90
2
 70
0
 10
367.343394
 20
759.942938
 30
0.0
 10
339.000902
 20
759.942938
 30
0.0
  0
LWPOLYLINE
  5
106
100
AcDbEntity
  8
Body
 62
7
100
AcDbPolyline
 90
4
 70
1
 10
367.343394
 20
759.942938
 30
0.0
 10
367.343394
 20
618.210978
 30
0.0
 10
367.343394
 20
618.210978
 30
0.0
 10
367.343394
 20
759.942938
 30
0.0
  0
LWPOLYLINE
  5
107
100
AcDbEntity
  8
Body
 62
7
100
AcDbPolyline
 90
4
 70
0
 10
367.343394
 20
618.210978
 30
0.0
 10
367.343394
 20
533.171502
 30
0.0
 10
353.693398
 20
533.171502
 30
0.0
 10
339.000902
 20
537.109001
 30
0.0
  0
SPLINE
  5
108
100
AcDbEntity
  8
Body
 62
7
100
AcDbSpline
 70
8
 71
3
 72
8
 73
4
 74
0
 40
0
 40
0
 40
0
 40
0
 40
1
 40
1
 40
1
 40
1
 10
338.997182
 20
557.531585
 30
0.0
 10
347.840595
 20
559.050065
 30
0.0
 10
354.304271
 20
566.718202
 30
0.0
 10
354.304264
 20
575.691035
 30
0.0
  0
SPLINE
  5
109
100
AcDbEntity
  8
Body
 62
7
100
AcDbSpline
 70
8
 71
3
 72
8
 73
4
 74
0
 40
0
 40
0
 40
0
 40
0
 40
1
 40
1
 40
1
 40
1
 10
354.304264
 20
575.691035
 30
0.0
 10
354.304256
 20
584.663868
 30
0.0
 10
347.840568
 20
592.331994
 30
0.0
 10
338.997152
 20
593.850460
 30
0.0
  0
LWPOLYLINE
  5
10a
100
AcDbEntity
  8
Body
 62
7
100
AcDbPolyline
 90
2
 70
0
 10
339.000902
 20
557.531495
 30
0.0
 10
339.000902
 20
537.109001
 30
0.0
  0
LWPOLYLINE
  5
10b
100
AcDbEntity
  8
Body
 62
7
100
AcDbPolyline
 90
2
 70
0
 10
339.000902
 20
614.272729
 30
0.0
 10
339.000902
 20
593.850235
 30
0.0
  0
LWPOLYLINE
  5
10c
100
AcDbEntity
  8
Body
 62
7
100
AcDbPolyline
 90
2
 70
0
 10
353.693398
 20
618.210978
 30
0.0
 10
339.000902
 20
614.272729
 30
0.0
  0
LWPOLYLINE
  5
10d
100
AcDbEntity
  8
Body
 62
7
100
AcDbPolyline
 90
2
 70
0
 10
353.693398
 20
618.210978
 30
0.0
 10
367.343394
 20
618.210978
 30
0.0
  0
LWPOLYLINE
  5
10e
100
AcDbEntity
  8
Body
 62
7
100
AcDbPolyline
 90
6
 70
0
 10
339.000902
 20
731.596471
 30
0.0
 10
339.000902
 20
614.272729
 30
0.0
 10
339.000902
 20
614.272729
 30
0.0
 10
339.000902
 20
731.596471
 30
0.0
 10
339.000902
 20
731.596471
 30
0.0
 10
225.608434
 20
731.596471
 30
0.0
  0
LWPOLYLINE
  5
10f
100
AcDbEntity
  8
Body
 62
7
100
AcDbPolyline
 90
2
 70
0
 10
339.000902
 20
759.942938
 30
0.0
 10
225.608434
 20
759.942938
 30
0.0
  0
LWPOLYLINE
  5
110
100
AcDbEntity
  8
Body
 62
7
100
AcDbPolyline
 90
2
 70
0
 10
339.000902
 20
759.942938
 30
0.0
 10
339.000902
 20
731.596471
 30
0.0
  0
LWPOLYLINE
  5
111
100
AcDbEntity
  8
Body
 62
7
100
AcDbPolyline
 90
2
 70
0
 10
225.608434
 20
731.596471
 30
0.0
 10
225.608434
 20
759.942938
 30
0.0
  0
LWPOLYLINE
  5
112
100
AcDbEntity
  8
Body
 62
7
100
AcDbPolyline
 90
2
 70
0
 10
367.343394
 20
759.942938
 30
0.0
 10
339.000902
 20
759.942938
 30
0.0
  0
LWPOLYLINE
  5
113
100
AcDbEntity
  8
Body
 62
7
100
AcDbPolyline
 90
2
 70
0
 10
367.343394
 20
759.942938
 30
0.0
 10
339.000902
 20
759.942938
 30
0.0
  0
LWPOLYLINE
  5
114
100
AcDbEntity
  8
Body
 62
7
100
AcDbPolyline
 90
1
 70
1
 10
367.343394
 20
759.942938
 30
0.0
  0
LWPOLYLINE
  5
115
100
AcDbEntity
  8
Body
 62
7
100
AcDbPolyline
 90
1
 70
1
 10
339.000902
 20
759.942938
 30
0.0
  0
LWPOLYLINE
  5
116
100
AcDbEntity
  8
Body
 62
7
100
AcDbPolyline
 90
1
 70
1
 10
367.343394
 20
618.210978
 30
0.0
  0
LWPOLYLINE
  5
117
100
AcDbEntity
  8
Body
 62
7
100
AcDbPolyline
 90
1
 70
1
 10
367.343394
 20
533.171502
 30
0.0
  0
LWPOLYLINE
  5
118
100
AcDbEntity
  8
Body
 62
7
100
AcDbPolyline
 90
2
 70
0
 10
367.343394
 20
618.210978
 30
0.0
 10
367.343394
 20
533.171502
 30
0.0
  0
LWPOLYLINE
  5
119
100
AcDbEntity
  8
Body
 62
7
100
AcDbPolyline
 90
2
 70
0
 10
367.343394
 20
618.210978
 30
0.0
 10
367.343394
 20
533.171502
 30
0.0
  0
LWPOLYLINE
  5
11a
100
AcDbEntity
  8
Body
 62
7
100
AcDbPolyline
 90
3
 70
0
 10
367.343394
 20
618.210978
 30
0.0
 10
367.343394
 20
759.942938
 30
0.0
 10
339.000902
 20
759.942938
 30
0.0
  0
LWPOLYLINE
  5
11b
100
AcDbEntity
  8
Body
 62
7
100
AcDbPolyline
 90
2
 70
0
 10
339.000902
 20
731.596471
 30
0.0
 10
339.000902
 20
759.942938
 30
0.0
  0
LWPOLYLINE
  5
11c
100
AcDbEntity
  8
Body
 62
7
100
AcDbPolyline
 90
2
 70
0
 10
339.000902
 20
614.272729
 30
0.0
 10
339.000902
 20
731.596471
 30
0.0
  0
LWPOLYLINE
  5
11d
100
AcDbEntity
  8
Body
 62
7
100
AcDbPolyline
 90
2
 70
0
 10
353.693398
 20
618.210978
 30
0.0
 10
339.000902
 20
614.272729
 30
0.0
  0
LWPOLYLINE
  5
11e
100
AcDbEntity
  8
Body
 62
7
100
AcDbPolyline
 90
2
 70
0
 10
353.693398
 20
618.210978
 30
0.0
 10
367.343394
 20
618.210978
 30
0.0
  0
LWPOLYLINE
  5
11f
100
AcDbEntity
  8
Body
 62
7
100
AcDbPolyline
 90
2
 70
0
 10
367.343394
 20
533.171502
 30
0.0
 10
367.343394
 20
276.069324
 30
0.0
  0
LWPOLYLINE
  5
120
100
AcDbEntity
  8
Body
 62
7
100
AcDbPolyline
 90
2
 70
0
 10
353.693398
 20
276.069324
 30
0.0
 10
367.343394
 20
276.069324
 30
0.0
  0
LWPOLYLINE
  5
121
100
AcDbEntity
  8
Body
 62
7
100
AcDbPolyline
 90
2
 70
0
 10
339.000902
 20
272.131825
 30
0.0
 10
353.693398
 20
276.069324
 30
0.0
  0
LWPOLYLINE
  5
122
100
AcDbEntity
  8
Body
 62
7
100
AcDbPolyline
 90
2
 70
0
 10
339.000902
 20
537.109001
 30
0.0
 10
339.000902
 20
272.131825
 30
0.0
  0
LWPOLYLINE
  5
123
100
AcDbEntity
  8
Body
 62
7
100
AcDbPolyline
 90
2
 70
0
 10
353.693398
 20
533.171502
 30
0.0
 10
339.000902
 20
537.109001
 30
0.0
  0
LWPOLYLINE
  5
124
100
AcDbEntity
  8
Body
 62
7
100
AcDbPolyline
 90
2
 70
0
 10
367.343394
 20
533.171502
 30
0.0
 10
353.693398
 20
533.171502
 30
0.0
  0
SPLINE
  5
125
100
AcDbEntity
  8
Body
 62
7
100
AcDbSpline
 70
8
 71
3
 72
8
 73
4
 74
0
 40
0
 40
0
 40
0
 40
0
 40
1
 40
1
 40
1
 40
1
 10
338.997152
 20
593.850460
 30
0.0
 10
332.140239
 20
595.027835
 30
0.0
 10
325.204838
 20
592.242520
 30
0.0
 10
321.066955
 20
586.649543
 30
0.0
  0
SPLINE
  5
126
100
AcDbEntity
  8
Body
 62
7
100
AcDbSpline
 70
8
 71
3
 72
8
 73
4
 74
0
 40
0
 40
0
 40
0
 40
0
 40
1
 40
1
 40
1
 40
1
 10
321.066955
 20
586.649543
 30
0.0
 10
316.929072
 20
581.056565
 30
0.0
 10
316.294387
 20
573.609757
 30
0.0
 10
319.426093
 20
567.397198
 30
0.0
  0
SPLINE
  5
127
100
AcDbEntity
  8
Body
 62
7
100
AcDbSpline
 70
8
 71
3
 72
8
 73
4
 74
0
 40
0
 40
0
 40
0
 40
0
 40
1
 40
1
 40
1
 40
1
 10
319.426093
 20
567.397198
 30
0.0
 10
322.557799
 20
561.184640
 30
0.0
 10
328.921813
 20
557.265825
 30
0.0
 10
335.879073
 20
557.265830
 30
0.0
  0
SPLINE
  5
128
100
AcDbEntity
  8
Body
 62
7
100
AcDbSpline
 70
8
 71
3
 72
8
 73
4
 74
0
 40
0
 40
0
 40
0
 40
0
 40
1
 40
1
 40
1
 40
1
 10
335.879073
 20
557.265830
 30
0.0
 10
336.924099
 20
557.265829
 30
0.0
 10
337.967230
 20
557.354735
 30
0.0
 10
338.997182
 20
557.531585
 30
0.0
  0
LWPOLYLINE
  5
129
100
AcDbEntity
  8
Body
 62
7
100
AcDbPolyline
 90
2
 70
0
 10
339.000902
 20
614.272729
 30
0.0
 10
339.000902
 20
593.850235
 30
0.0
  0
SPLINE
  5
12a
100
AcDbEntity
  8
Body
 62
7
100
AcDbSpline
 70
8
 71
3
 72
8
 73
4
 74
0
 40
0
 40
0
 40
0
 40
0
 40
1
 40
1
 40
1
 40
1
 10
322.739819
 20
609.916730
 30
0.0
 10
307.249070
 20
605.765996
 30
0.0
 10
296.477511
 20
591.728226
 30
0.0
 10
296.477511
 20
575.691022
 30
0.0
  0
SPLINE
  5
12b
100
AcDbEntity
  8
Body
 62
7
100
AcDbSpline
 70
8
 71
3
 72
8
 73
4
 74
0
 40
0
 40
0
 40
0
 40
0
 40
1
 40
1
 40
1
 40
1
 10
296.477511
 20
575.691022
 30
0.0
 10
296.477511
 20
559.653818
 30
0.0
 10
307.249070
 20
545.616049
 30
0.0
 10
322.739819
 20
541.465314
 30
0.0
  0
LWPOLYLINE
  5
12c
100
AcDbEntity
  8
Body
 62
7
100
AcDbPolyline
 90
3
 70
0
 10
339.000902
 20
557.531495
 30
0.0
 10
339.000902
 20
537.109001
 30
0.0
 10
322.740907
 20
541.464999
 30
0.0
  0
LWPOLYLINE
  5
12d
100
AcDbEntity
  8
Body
 62
7
100
AcDbPolyline
 90
2
 70
0
 10
339.000902
 20
614.272729
 30
0.0
 10
322.740907
 20
609.916730
 30
0.0
  0
SPLINE
  5
12e
100
AcDbEntity
  8
Body
 62
7
100
AcDbSpline
 70
8
 71
3
 72
8
 73
4
 74
0
 40
0
 40
0
 40
0
 40
0
 40
1
 40
1
 40
1
 40
1
 10
335.879073
 20
557.265830
 30
0.0
 10
336.924099
 20
557.265829
 30
0.0
 10
337.967230
 20
557.354735
 30
0.0
 10
338.997182
 20
557.531585
 30
0.0
  0
SPLINE
  5
12f
100
AcDbEntity
  8
Body
 62
7
100
AcDbSpline
 70
8
 71
3
 72
8
 73
4
 74
0
 40
0
 40
0
 40
0
 40
0
 40
1
 40
1
 40
1
 40
1
 10
338.997182
 20
557.531585
 30
0.0
 10
347.840595
 20
559.050065
 30
0.0
 10
354.304271
 20
566.718202
 30
0.0
 10
354.304264
 20
575.691035
 30
0.0
  0
SPLINE
  5
130
100
AcDbEntity
  8
Body
 62
7
100
AcDbSpline
 70
8
 71
3
 72
8
 73
4
 74
0
 40
0
 40
0
 40
0
 40
0
 40
1
 40
1
 40
1
 40
1
 10
354.304264
 20
575.691035
 30
0.0
 10
354.304256
 20
584.663868
 30
0.0
 10
347.840568
 20
592.331994
 30
0.0
 10
338.997152
 20
593.850460
 30
0.0
  0
SPLINE
  5
131
100
AcDbEntity
  8
Body
 62
7
100
AcDbSpline
 70
8
 71
3
 72
8
 73
4
 74
0
 40
0
 40
0
 40
0
 40
0
 40
1
 40
1
 40
1
 40
1
 10
338.997152
 20
593.850460
 30
0.0
 10
332.140239
 20
595.027835
 30
0.0
 10
325.204838
 20
592.242520
 30
0.0
 10
321.066955
 20
586.649543
 30
0.0
  0
SPLINE
  5
132
100
AcDbEntity
  8
Body
 62
7
100
AcDbSpline
 70
8
 71
3
 72
8
 73
4
 74
0
 40
0
 40
0
 40
0
 40
0
 40
1
 40
1
 40
1
 40
1
 10
321.066955
 20
586.649543
 30
0.0
 10
316.929072
 20
581.056565
 30
0.0
 10
316.294387
 20
573.609757
 30
0.0
 10
319.426093
 20
567.397198
 30
0.0
  0
SPLINE
  5
133
100
AcDbEntity
  8
Body
 62
7
100
AcDbSpline
 70
8
 71
3
 72
8
 73
4
 74
0
 40
0
 40
0
 40
0
 40
0
 40
1
 40
1
 40
1
 40
1
 10
319.426093
 20
567.397198
 30
0.0
 10
322.557799
 20
561.184640
 30
0.0
 10
328.921813
 20
557.265825
 30
0.0
 10
335.879073
 20
557.265830
 30
0.0
  0
SPLINE
  5
134
100
AcDbEntity
  8
Body
 62
7
100
AcDbSpline
 70
8
 71
3
 72
8
 73
4
 74
0
 40
0
 40
0
 40
0
 40
0
 40
1
 40
1
 40
1
 40
1
 10
338.997152
 20
593.850460
 30
0.0
 10
332.140239
 20
595.027835
 30
0.0
 10
325.204838
 20
592.242520
 30
0.0
 10
321.066955
 20
586.649543
 30
0.0
  0
SPLINE
  5
135
100
AcDbEntity
  8
Body
 62
7
100
AcDbSpline
 70
8
 71
3
 72
8
 73
4
 74
0
 40
0
 40
0
 40
0
 40
0
 40
1
 40
1
 40
1
 40
1
 10
321.066955
 20
586.649543
 30
0.0
 10
316.929072
 20
581.056565
 30
0.0
 10
316.294387
 20
573.609757
 30
0.0
 10
319.426093
 20
567.397198
 30
0.0
  0
SPLINE
  5
136
100
AcDbEntity
  8
Body
 62
7
100
AcDbSpline
 70
8
 71
3
 72
8
 73
4
 74
0
 40
0
 40
0
 40
0
 40
0
 40
1
 40
1
 40
1
 40
1
 10
319.426093
 20
567.397198
 30
0.0
 10
322.557799
 20
561.184640
 30
0.0
 10
328.921813
 20
557.265825
 30
0.0
 10
335.879073
 20
557.265830
 30
0.0
  0
SPLINE
  5
137
100
AcDbEntity
  8
Body
 62
7
100
AcDbSpline
 70
8
 71
3
 72
8
 73
4
 74
0
 40
0
 40
0
 40
0
 40
0
 40
1
 40
1
 40
1
 40
1
 10
338.997182
 20
557.531585
 30
0.0
 10
347.840595
 20
559.050065
 30
0.0
 10
354.304271
 20
566.718202
 30
0.0
 10
354.304264
 20
575.691035
 30
0.0
  0
SPLINE
  5
138
100
AcDbEntity
  8
Body
 62
7
100
AcDbSpline
 70
8
 71
3
 72
8
 73
4
 74
0
 40
0
 40
0
 40
0
 40
0
 40
1
 40
1
 40
1
 40
1
 10
354.304264
 20
575.691035
 30
0.0
 10
354.304256
 20
584.663868
 30
0.0
 10
347.840568
 20
592.331994
 30
0.0
 10
338.997152
 20
593.850460
 30
0.0
  0
SPLINE
  5
139
100
AcDbEntity
  8
Body
 62
7
100
AcDbSpline
 70
8
 71
3
 72
8
 73
4
 74
0
 40
0
 40
0
 40
0
 40
0
 40
1
 40
1
 40
1
 40
1
 10
335.879073
 20
557.265830
 30
0.0
 10
336.924099
 20
557.265829
 30
0.0
 10
337.967230
 20
557.354735
 30
0.0
 10
338.997182
 20
557.531585
 30
0.0
  0
LWPOLYLINE
  5
13a
100
AcDbEntity
  8
Body
 62
7
100
AcDbPolyline
 90
2
 70
1
 10
335.880903
 20
557.265995
 30
0.0
 10
335.880903
 20
557.265995
 30
0.0
  0
LWPOLYLINE
  5
13b
100
AcDbEntity
  8
Body
 62
7
100
AcDbPolyline
 90
3
 70
0
 10
339.000902
 20
614.272729
 30
0.0
 10
322.740907
 20
609.916730
 30
0.0
 10
322.740907
 20
609.916730
 30
0.0
  0
LWPOLYLINE
  5
13c
100
AcDbEntity
  8
Body
 62
7
100
AcDbPolyline
 90
2
 70
0
 10
339.000902
 20
614.272729
 30
0.0
 10
322.740907
 20
609.916730
 30
0.0
  0
LWPOLYLINE
  5
13d
100
AcDbEntity
  8
Body
 62
7
100
AcDbPolyline
 90
1
 70
1
 10
339.000902
 20
614.272729
 30
0.0
  0
LWPOLYLINE
  5
13e
100
AcDbEntity
  8
Body
 62
7
100
AcDbPolyline
 90
2
 70
0
 10
339.000902
 20
731.596471
 30
0.0
 10
225.608434
 20
731.596471
 30
0.0
  0
LWPOLYLINE
  5
13f
100
AcDbEntity
  8
Body
 62
7
100
AcDbPolyline
 90
2
 70
0
 10
339.000902
 20
731.596471
 30
0.0
 10
225.608434
 20
731.596471
 30
0.0
  0
LWPOLYLINE
  5
140
100
AcDbEntity
  8
Body
 62
7
100
AcDbPolyline
 90
1
 70
1
 10
339.000902
 20
731.596471
 30
0.0
  0
LWPOLYLINE
  5
141
100
AcDbEntity
  8
Body
 62
7
100
AcDbPolyline
 90
1
 70
1
 10
225.608434
 20
731.596471
 30
0.0
  0
LWPOLYLINE
  5
142
100
AcDbEntity
  8
Body
 62
7
100
AcDbPolyline
 90
2
 70
0
 10
339.000902
 20
759.942938
 30
0.0
 10
225.608434
 20
759.942938
 30
0.0
  0
LWPOLYLINE
  5
143
100
AcDbEntity
  8
Body
 62
7
100
AcDbPolyline
 90
2
 70
0
 10
339.000902
 20
759.942938
 30
0.0
 10
225.608434
 20
759.942938
 30
0.0
  0
LWPOLYLINE
  5
144
100
AcDbEntity
  8
Body
 62
7
100
AcDbPolyline
 90
1
 70
1
 10
339.000902
 20
759.942938
 30
0.0
  0
LWPOLYLINE
  5
145
100
AcDbEntity
  8
Body
 62
7
100
AcDbPolyline
 90
5
 70
1
 10
225.608434
 20
759.942938
 30
0.0
 10
225.608434
 20
759.942938
 30
0.0
 10
225.608434
 20
731.596471
 30
0.0
 10
225.608434
 20
731.596471
 30
0.0
 10
225.608434
 20
759.942938
 30
0.0
  0
LWPOLYLINE
  5
146
100
AcDbEntity
  8
Body
 62
7
100
AcDbPolyline
 90
4
 70
1
 10
367.343394
 20
533.171502
 30
0.0
 10
367.343394
 20
276.069324
 30
0.0
 10
367.343394
 20
276.069324
 30
0.0
 10
367.343394
 20
533.171502
 30
0.0
  0
LWPOLYLINE
  5
147
100
AcDbEntity
  8
Body
 62
7
100
AcDbPolyline
 90
2
 70
0
 10
353.693398
 20
618.210978
 30
0.0
 10
367.343394
 20
618.210978
 30
0.0
  0
LWPOLYLINE
  5
148
100
AcDbEntity
  8
Body
 62
7
100
AcDbPolyline
 90
2
 70
0
 10
353.693398
 20
618.210978
 30
0.0
 10
339.000902
 20
614.272729
 30
0.0
  0
SPLINE
  5
149
100
AcDbEntity
  8
Body
 62
7
100
AcDbSpline
 70
8
 71
3
 72
8
 73
4
 74
0
 40
0
 40
0
 40
0
 40
0
 40
1
 40
1
 40
1
 40
1
 10
338.997182
 20
557.531585
 30
0.0
 10
347.840595
 20
559.050065
 30
0.0
 10
354.304271
 20
566.718202
 30
0.0
 10
354.304264
 20
575.691035
 30
0.0
  0
SPLINE
  5
14a
100
AcDbEntity
  8
Body
 62
7
100
AcDbSpline
 70
8
 71
3
 72
8
 73
4
 74
0
 40
0
 40
0
 40
0
 40
0
 40
1
 40
1
 40
1
 40
1
 10
354.304264
 20
575.691035
 30
0.0
 10
354.304256
 20
584.663868
 30
0.0
 10
347.840568
 20
592.331994
 30
0.0
 10
338.997152
 20
593.850460
 30
0.0
  0
LWPOLYLINE
  5
14b
100
AcDbEntity
  8
Body
 62
7
100
AcDbPolyline
 90
2
 70
0
 10
339.000902
 20
593.850235
 30
0.0
 10
339.000902
 20
614.272729
 30
0.0
  0
LWPOLYLINE
  5
14c
100
AcDbEntity
  8
Body
 62
7
100
AcDbPolyline
 90
2
 70
0
 10
339.000902
 20
537.109001
 30
0.0
 10
339.000902
 20
557.531495
 30
0.0
  0
LWPOLYLINE
  5
14d
100
AcDbEntity
  8
Body
 62
7
100
AcDbPolyline
 90
2
 70
0
 10
353.693398
 20
533.171502
 30
0.0
 10
339.000902
 20
537.109001
 30
0.0
  0
LWPOLYLINE
  5
14e
100
AcDbEntity
  8
Body
 62
7
100
AcDbPolyline
 90
2
 70
0
 10
367.343394
 20
533.171502
 30
0.0
 10
353.693398
 20
533.171502
 30
0.0
  0
LWPOLYLINE
  5
14f
100
AcDbEntity
  8
Body
 62
7
100
AcDbPolyline
 90
2
 70
0
 10
367.343394
 20
618.210978
 30
0.0
 10
367.343394
 20
533.171502
 30
0.0
  0
LWPOLYLINE
  5
150
100
AcDbEntity
  8
Body
 62
7
100
AcDbPolyline
 90
2
 70
0
 10
339.000902
 20
759.942938
 30
0.0
 10
225.608434
 20
759.942938
 30
0.0
  0
LWPOLYLINE
  5
151
100
AcDbEntity
  8
Body
 62
7
100
AcDbPolyline
 90
2
 70
0
 10
339.000902
 20
731.596471
 30
0.0
 10
225.608434
 20
731.596471
 30
0.0
  0
LWPOLYLINE
  5
152
100
AcDbEntity
  8
Body
 62
7
100
AcDbPolyline
 90
2
 70
0
 10
339.000902
 20
731.596471
 30
0.0
 10
339.000902
 20
759.942938
 30
0.0
  0
LWPOLYLINE
  5
153
100
AcDbEntity
  8
Body
 62
7
100
AcDbPolyline
 90
2
 70
0
 10
225.608434
 20
759.942938
 30
0.0
 10
225.608434
 20
731.596471
 30
0.0
  0
LWPOLYLINE
  5
154
100
AcDbEntity
  8
Body
 62
7
100
AcDbPolyline
 90
4
 70
0
 10
367.343394
 20
276.069324
 30
0.0
 10
367.343394
 20
191.029848
 30
0.0
 10
353.693398
 20
191.029848
 30
0.0
 10
339.000902
 20
194.967347
 30
0.0
  0
SPLINE
  5
155
100
AcDbEntity
  8
Body
 62
7
100
AcDbSpline
 70
8
 71
3
 72
8
 73
4
 74
0
 40
0
 40
0
 40
0
 40
0
 40
1
 40
1
 40
1
 40
1
 10
338.997182
 20
215.389946
 30
0.0
 10
347.840595
 20
216.908426
 30
0.0
 10
354.304271
 20
224.576563
 30
0.0
 10
354.304264
 20
233.549396
 30
0.0
  0
SPLINE
  5
156
100
AcDbEntity
  8
Body
 62
7
100
AcDbSpline
 70
8
 71
3
 72
8
 73
4
 74
0
 40
0
 40
0
 40
0
 40
0
 40
1
 40
1
 40
1
 40
1
 10
354.304264
 20
233.549396
 30
0.0
 10
354.304256
 20
242.522229
 30
0.0
 10
347.840568
 20
250.190355
 30
0.0
 10
338.997152
 20
251.708821
 30
0.0
  0
LWPOLYLINE
  5
157
100
AcDbEntity
  8
Body
 62
7
100
AcDbPolyline
 90
2
 70
0
 10
339.000902
 20
215.390591
 30
0.0
 10
339.000902
 20
194.967347
 30
0.0
  0
LWPOLYLINE
  5
158
100
AcDbEntity
  8
Body
 62
7
100
AcDbPolyline
 90
2
 70
0
 10
339.000902
 20
272.131825
 30
0.0
 10
339.000902
 20
251.707831
 30
0.0
  0
LWPOLYLINE
  5
159
100
AcDbEntity
  8
Body
 62
7
100
AcDbPolyline
 90
3
 70
0
 10
339.000902
 20
272.131825
 30
0.0
 10
353.693398
 20
276.069324
 30
0.0
 10
367.343394
 20
276.069324
 30
0.0
  0
LWPOLYLINE
  5
15a
100
AcDbEntity
  8
Body
 62
7
100
AcDbPolyline
 90
7
 70
0
 10
339.000902
 20
537.109001
 30
0.0
 10
339.000902
 20
272.131825
 30
0.0
 10
339.000902
 20
272.131825
 30
0.0
 10
339.000902
 20
537.109001
 30
0.0
 10
339.000902
 20
537.109001
 30
0.0
 10
322.740907
 20
541.464999
 30
0.0
 10
322.740907
 20
541.464999
 30
0.0
  0
LWPOLYLINE
  5
15b
100
AcDbEntity
  8
Body
 62
7
100
AcDbPolyline
 90
2
 70
0
 10
339.000902
 20
537.109001
 30
0.0
 10
322.740907
 20
541.464999
 30
0.0
  0
LWPOLYLINE
  5
15c
100
AcDbEntity
  8
Body
 62
7
100
AcDbPolyline
 90
1
 70
1
 10
339.000902
 20
537.109001
 30
0.0
  0
LWPOLYLINE
  5
15d
100
AcDbEntity
  8
Body
 62
7
100
AcDbPolyline
 90
1
 70
1
 10
322.740907
 20
609.916730
 30
0.0
  0
SPLINE
  5
15e
100
AcDbEntity
  8
Body
 62
7
100
AcDbSpline
 70
8
 71
3
 72
8
 73
4
 74
0
 40
0
 40
0
 40
0
 40
0
 40
1
 40
1
 40
1
 40
1
 10
322.739819
 20
609.916730
 30
0.0
 10
307.249070
 20
605.765996
 30
0.0
 10
296.477511
 20
591.728226
 30
0.0
 10
296.477511
 20
575.691022
 30
0.0
  0
SPLINE
  5
15f
100
AcDbEntity
  8
Body
 62
7
100
AcDbSpline
 70
8
 71
3
 72
8
 73
4
 74
0
 40
0
 40
0
 40
0
 40
0
 40
1
 40
1
 40
1
 40
1
 10
296.477511
 20
575.691022
 30
0.0
 10
296.477511
 20
559.653818
 30
0.0
 10
307.249070
 20
545.616049
 30
0.0
 10
322.739819
 20
541.465314
 30
0.0
  0
SPLINE
  5
160
100
AcDbEntity
  8
Body
 62
7
100
AcDbSpline
 70
8
 71
3
 72
8
 73
4
 74
0
 40
0
 40
0
 40
0
 40
0
 40
1
 40
1
 40
1
 40
1
 10
322.739819
 20
609.916730
 30
0.0
 10
307.249070
 20
605.765996
 30
0.0
 10
296.477511
 20
591.728226
 30
0.0
 10
296.477511
 20
575.691022
 30
0.0
  0
SPLINE
  5
161
100
AcDbEntity
  8
Body
 62
7
100
AcDbSpline
 70
8
 71
3
 72
8
 73
4
 74
0
 40
0
 40
0
 40
0
 40
0
 40
1
 40
1
 40
1
 40
1
 10
296.477511
 20
575.691022
 30
0.0
 10
296.477511
 20
559.653818
 30
0.0
 10
307.249070
 20
545.616049
 30
0.0
 10
322.739819
 20
541.465314
 30
0.0
  0
LWPOLYLINE
  5
162
100
AcDbEntity
  8
Body
 62
7
100
AcDbPolyline
 90
1
 70
1
 10
322.740907
 20
541.464999
 30
0.0
  0
SPLINE
  5
163
100
AcDbEntity
  8
Body
 62
7
100
AcDbSpline
 70
8
 71
3
 72
8
 73
4
 74
0
 40
0
 40
0
 40
0
 40
0
 40
1
 40
1
 40
1
 40
1
 10
322.739819
 20
609.916730
 30
0.0
 10
307.249070
 20
605.765996
 30
0.0
 10
296.477511
 20
591.728226
 30
0.0
 10
296.477511
 20
575.691022
 30
0.0
  0
SPLINE
  5
164
100
AcDbEntity
  8
Body
 62
7
100
AcDbSpline
 70
8
 71
3
 72
8
 73
4
 74
0
 40
0
 40
0
 40
0
 40
0
 40
1
 40
1
 40
1
 40
1
 10
296.477511
 20
575.691022
 30
0.0
 10
296.477511
 20
559.653818
 30
0.0
 10
307.249070
 20
545.616049
 30
0.0
 10
322.739819
 20
541.465314
 30
0.0
  0
LWPOLYLINE
  5
165
100
AcDbEntity
  8
Body
 62
7
100
AcDbPolyline
 90
2
 70
0
 10
339.000902
 20
537.109001
 30
0.0
 10
322.740907
 20
541.464999
 30
0.0
  0
LWPOLYLINE
  5
166
100
AcDbEntity
  8
Body
 62
7
100
AcDbPolyline
 90
2
 70
0
 10
339.000902
 20
614.272729
 30
0.0
 10
322.740907
 20
609.916730
 30
0.0
  0
SPLINE
  5
167
100
AcDbEntity
  8
Body
 62
7
100
AcDbSpline
 70
8
 71
3
 72
8
 73
4
 74
0
 40
0
 40
0
 40
0
 40
0
 40
1
 40
1
 40
1
 40
1
 10
338.997152
 20
593.850460
 30
0.0
 10
332.140239
 20
595.027835
 30
0.0
 10
325.204838
 20
592.242520
 30
0.0
 10
321.066955
 20
586.649543
 30
0.0
  0
SPLINE
  5
168
100
AcDbEntity
  8
Body
 62
7
100
AcDbSpline
 70
8
 71
3
 72
8
 73
4
 74
0
 40
0
 40
0
 40
0
 40
0
 40
1
 40
1
 40
1
 40
1
 10
321.066955
 20
586.649543
 30
0.0
 10
316.929072
 20
581.056565
 30
0.0
 10
316.294387
 20
573.609757
 30
0.0
 10
319.426093
 20
567.397198
 30
0.0
  0
SPLINE
  5
169
100
AcDbEntity
  8
Body
 62
7
100
AcDbSpline
 70
8
 71
3
 72
8
 73
4
 74
0
 40
0
 40
0
 40
0
 40
0
 40
1
 40
1
 40
1
 40
1
 10
319.426093
 20
567.397198
 30
0.0
 10
322.557799
 20
561.184640
 30
0.0
 10
328.921813
 20
557.265825
 30
0.0
 10
335.879073
 20
557.265830
 30
0.0
  0
SPLINE
  5
16a
100
AcDbEntity
  8
Body
 62
7
100
AcDbSpline
 70
8
 71
3
 72
8
 73
4
 74
0
 40
0
 40
0
 40
0
 40
0
 40
1
 40
1
 40
1
 40
1
 10
335.879073
 20
557.265830
 30
0.0
 10
336.924099
 20
557.265829
 30
0.0
 10
337.967230
 20
557.354735
 30
0.0
 10
338.997182
 20
557.531585
 30
0.0
  0
LWPOLYLINE
  5
16b
100
AcDbEntity
  8
Body
 62
7
100
AcDbPolyline
 90
2
 70
0
 10
339.000902
 20
593.850235
 30
0.0
 10
339.000902
 20
614.272729
 30
0.0
  0
LWPOLYLINE
  5
16c
100
AcDbEntity
  8
Body
 62
7
100
AcDbPolyline
 90
2
 70
0
 10
339.000902
 20
537.109001
 30
0.0
 10
339.000902
 20
557.531495
 30
0.0
  0
LWPOLYLINE
  5
16d
100
AcDbEntity
  8
Body
 62
7
100
AcDbPolyline
 90
1
 70
1
 10
367.343394
 20
276.069324
 30
0.0
  0
LWPOLYLINE
  5
16e
100
AcDbEntity
  8
Body
 62
7
100
AcDbPolyline
 90
1
 70
1
 10
367.343394
 20
191.029848
 30
0.0
  0
LWPOLYLINE
  5
16f
100
AcDbEntity
  8
Body
 62
7
100
AcDbPolyline
 90
2
 70
0
 10
367.343394
 20
276.069324
 30
0.0
 10
367.343394
 20
191.029848
 30
0.0
  0
LWPOLYLINE
  5
170
100
AcDbEntity
  8
Body
 62
7
100
AcDbPolyline
 90
2
 70
0
 10
367.343394
 20
276.069324
 30
0.0
 10
367.343394
 20
191.029848
 30
0.0
  0
LWPOLYLINE
  5
171
100
AcDbEntity
  8
Body
 62
7
100
AcDbPolyline
 90
4
 70
0
 10
367.343394
 20
276.069324
 30
0.0
 10
367.343394
 20
533.171502
 30
0.0
 10
353.693398
 20
533.171502
 30
0.0
 10
339.000902
 20
537.109001
 30
0.0
  0
LWPOLYLINE
  5
172
100
AcDbEntity
  8
Body
 62
7
100
AcDbPolyline
 90
2
 70
0
 10
339.000902
 20
272.131825
 30
0.0
 10
339.000902
 20
537.109001
 30
0.0
  0
LWPOLYLINE
  5
173
100
AcDbEntity
  8
Body
 62
7
100
AcDbPolyline
 90
3
 70
0
 10
339.000902
 20
272.131825
 30
0.0
 10
353.693398
 20
276.069324
 30
0.0
 10
367.343394
 20
276.069324
 30
0.0
  0
LWPOLYLINE
  5
174
100
AcDbEntity
  8
Body
 62
7
100
AcDbPolyline
 90
3
 70
0
 10
367.343394
 20
191.029848
 30
0.0
 10
367.343394
 20
144.825361
 30
0.0
 10
339.000902
 20
144.825361
 30
0.0
  0
LWPOLYLINE
  5
175
100
AcDbEntity
  8
Body
 62
7
100
AcDbPolyline
 90
2
 70
0
 10
339.000902
 20
194.967347
 30
0.0
 10
339.000902
 20
144.825361
 30
0.0
  0
LWPOLYLINE
  5
176
100
AcDbEntity
  8
Body
 62
7
100
AcDbPolyline
 90
2
 70
0
 10
353.693398
 20
191.029848
 30
0.0
 10
339.000902
 20
194.967347
 30
0.0
  0
LWPOLYLINE
  5
177
100
AcDbEntity
  8
Body
 62
7
100
AcDbPolyline
 90
2
 70
0
 10
367.343394
 20
191.029848
 30
0.0
 10
353.693398
 20
191.029848
 30
0.0
  0
SPLINE
  5
178
100
AcDbEntity
  8
Body
 62
7
100
AcDbSpline
 70
8
 71
3
 72
8
 73
4
 74
0
 40
0
 40
0
 40
0
 40
0
 40
1
 40
1
 40
1
 40
1
 10
338.997152
 20
251.708821
 30
0.0
 10
332.140239
 20
252.886196
 30
0.0
 10
325.204838
 20
250.100881
 30
0.0
 10
321.066955
 20
244.507904
 30
0.0
  0
SPLINE
  5
179
100
AcDbEntity
  8
Body
 62
7
100
AcDbSpline
 70
8
 71
3
 72
8
 73
4
 74
0
 40
0
 40
0
 40
0
 40
0
 40
1
 40
1
 40
1
 40
1
 10
321.066955
 20
244.507904
 30
0.0
 10
316.929072
 20
238.914926
 30
0.0
 10
316.294387
 20
231.468118
 30
0.0
 10
319.426093
 20
225.255559
 30
0.0
  0
SPLINE
  5
17a
100
AcDbEntity
  8
Body
 62
7
100
AcDbSpline
 70
8
 71
3
 72
8
 73
4
 74
0
 40
0
 40
0
 40
0
 40
0
 40
1
 40
1
 40
1
 40
1
 10
319.426093
 20
225.255559
 30
0.0
 10
322.557799
 20
219.043001
 30
0.0
 10
328.921813
 20
215.124186
 30
0.0
 10
335.879073
 20
215.124191
 30
0.0
  0
SPLINE
  5
17b
100
AcDbEntity
  8
Body
 62
7
100
AcDbSpline
 70
8
 71
3
 72
8
 73
4
 74
0
 40
0
 40
0
 40
0
 40
0
 40
1
 40
1
 40
1
 40
1
 10
335.879073
 20
215.124191
 30
0.0
 10
336.924099
 20
215.124190
 30
0.0
 10
337.967230
 20
215.213096
 30
0.0
 10
338.997182
 20
215.389946
 30
0.0
  0
LWPOLYLINE
  5
17c
100
AcDbEntity
  8
Body
 62
7
100
AcDbPolyline
 90
3
 70
0
 10
322.740907
 20
267.775076
 30
0.0
 10
339.000902
 20
272.131825
 30
0.0
 10
339.000902
 20
251.707831
 30
0.0
  0
SPLINE
  5
17d
100
AcDbEntity
  8
Body
 62
7
100
AcDbSpline
 70
8
 71
3
 72
8
 73
4
 74
0
 40
0
 40
0
 40
0
 40
0
 40
1
 40
1
 40
1
 40
1
 10
322.739819
 20
267.775091
 30
0.0
 10
307.249070
 20
263.624357
 30
0.0
 10
296.477511
 20
249.586587
 30
0.0
 10
296.477511
 20
233.549383
 30
0.0
  0
SPLINE
  5
17e
100
AcDbEntity
  8
Body
 62
7
100
AcDbSpline
 70
8
 71
3
 72
8
 73
4
 74
0
 40
0
 40
0
 40
0
 40
0
 40
1
 40
1
 40
1
 40
1
 10
296.477511
 20
233.549383
 30
0.0
 10
296.477511
 20
217.512179
 30
0.0
 10
307.249070
 20
203.474410
 30
0.0
 10
322.739819
 20
199.323675
 30
0.0
  0
LWPOLYLINE
  5
17f
100
AcDbEntity
  8
Body
 62
7
100
AcDbPolyline
 90
3
 70
0
 10
339.000902
 20
215.390591
 30
0.0
 10
339.000902
 20
194.967347
 30
0.0
 10
322.740907
 20
199.324095
 30
0.0
  0
SPLINE
  5
180
100
AcDbEntity
  8
Body
 62
7
100
AcDbSpline
 70
8
 71
3
 72
8
 73
4
 74
0
 40
0
 40
0
 40
0
 40
0
 40
1
 40
1
 40
1
 40
1
 10
335.879073
 20
215.124191
 30
0.0
 10
336.924099
 20
215.124190
 30
0.0
 10
337.967230
 20
215.213096
 30
0.0
 10
338.997182
 20
215.389946
 30
0.0
  0
SPLINE
  5
181
100
AcDbEntity
  8
Body
 62
7
100
AcDbSpline
 70
8
 71
3
 72
8
 73
4
 74
0
 40
0
 40
0
 40
0
 40
0
 40
1
 40
1
 40
1
 40
1
 10
338.997182
 20
215.389946
 30
0.0
 10
347.840595
 20
216.908426
 30
0.0
 10
354.304271
 20
224.576563
 30
0.0
 10
354.304264
 20
233.549396
 30
0.0
  0
SPLINE
  5
182
100
AcDbEntity
  8
Body
 62
7
100
AcDbSpline
 70
8
 71
3
 72
8
 73
4
 74
0
 40
0
 40
0
 40
0
 40
0
 40
1
 40
1
 40
1
 40
1
 10
354.304264
 20
233.549396
 30
0.0
 10
354.304256
 20
242.522229
 30
0.0
 10
347.840568
 20
250.190355
 30
0.0
 10
338.997152
 20
251.708821
 30
0.0
  0
SPLINE
  5
183
100
AcDbEntity
  8
Body
 62
7
100
AcDbSpline
 70
8
 71
3
 72
8
 73
4
 74
0
 40
0
 40
0
 40
0
 40
0
 40
1
 40
1
 40
1
 40
1
 10
338.997152
 20
251.708821
 30
0.0
 10
332.140239
 20
252.886196
 30
0.0
 10
325.204838
 20
250.100881
 30
0.0
 10
321.066955
 20
244.507904
 30
0.0
  0
SPLINE
  5
184
100
AcDbEntity
  8
Body
 62
7
100
AcDbSpline
 70
8
 71
3
 72
8
 73
4
 74
0
 40
0
 40
0
 40
0
 40
0
 40
1
 40
1
 40
1
 40
1
 10
321.066955
 20
244.507904
 30
0.0
 10
316.929072
 20
238.914926
 30
0.0
 10
316.294387
 20
231.468118
 30
0.0
 10
319.426093
 20
225.255559
 30
0.0
  0
SPLINE
  5
185
100
AcDbEntity
  8
Body
 62
7
100
AcDbSpline
 70
8
 71
3
 72
8
 73
4
 74
0
 40
0
 40
0
 40
0
 40
0
 40
1
 40
1
 40
1
 40
1
 10
319.426093
 20
225.255559
 30
0.0
 10
322.557799
 20
219.043001
 30
0.0
 10
328.921813
 20
215.124186
 30
0.0
 10
335.879073
 20
215.124191
 30
0.0
  0
SPLINE
  5
186
100
AcDbEntity
  8
Body
 62
7
100
AcDbSpline
 70
8
 71
3
 72
8
 73
4
 74
0
 40
0
 40
0
 40
0
 40
0
 40
1
 40
1
 40
1
 40
1
 10
338.997152
 20
251.708821
 30
0.0
 10
332.140239
 20
252.886196
 30
0.0
 10
325.204838
 20
250.100881
 30
0.0
 10
321.066955
 20
244.507904
 30
0.0
  0
SPLINE
  5
187
100
AcDbEntity
  8
Body
 62
7
100
AcDbSpline
 70
8
 71
3
 72
8
 73
4
 74
0
 40
0
 40
0
 40
0
 40
0
 40
1
 40
1
 40
1
 40
1
 10
321.066955
 20
244.507904
 30
0.0
 10
316.929072
 20
238.914926
 30
0.0
 10
316.294387
 20
231.468118
 30
0.0
 10
319.426093
 20
225.255559
 30
0.0
  0
SPLINE
  5
188
100
AcDbEntity
  8
Body
 62
7
100
AcDbSpline
 70
8
 71
3
 72
8
 73
4
 74
0
 40
0
 40
0
 40
0
 40
0
 40
1
 40
1
 40
1
 40
1
 10
319.426093
 20
225.255559
 30
0.0
 10
322.557799
 20
219.043001
 30
0.0
 10
328.921813
 20
215.124186
 30
0.0
 10
335.879073
 20
215.124191
 30
0.0
  0
SPLINE
  5
189
100
AcDbEntity
  8
Body
 62
7
100
AcDbSpline
 70
8
 71
3
 72
8
 73
4
 74
0
 40
0
 40
0
 40
0
 40
0
 40
1
 40
1
 40
1
 40
1
 10
338.997182
 20
215.389946
 30
0.0
 10
347.840595
 20
216.908426
 30
0.0
 10
354.304271
 20
224.576563
 30
0.0
 10
354.304264
 20
233.549396
 30
0.0
  0
SPLINE
  5
18a
100
AcDbEntity
  8
Body
 62
7
100
AcDbSpline
 70
8
 71
3
 72
8
 73
4
 74
0
 40
0
 40
0
 40
0
 40
0
 40
1
 40
1
 40
1
 40
1
 10
354.304264
 20
233.549396
 30
0.0
 10
354.304256
 20
242.522229
 30
0.0
 10
347.840568
 20
250.190355
 30
0.0
 10
338.997152
 20
251.708821
 30
0.0
  0
SPLINE
  5
18b
100
AcDbEntity
  8
Body
 62
7
100
AcDbSpline
 70
8
 71
3
 72
8
 73
4
 74
0
 40
0
 40
0
 40
0
 40
0
 40
1
 40
1
 40
1
 40
1
 10
335.879073
 20
215.124191
 30
0.0
 10
336.924099
 20
215.124190
 30
0.0
 10
337.967230
 20
215.213096
 30
0.0
 10
338.997182
 20
215.389946
 30
0.0
  0
LWPOLYLINE
  5
18c
100
AcDbEntity
  8
Body
 62
7
100
AcDbPolyline
 90
2
 70
1
 10
335.880903
 20
215.124341
 30
0.0
 10
335.880903
 20
215.124341
 30
0.0
  0
LWPOLYLINE
  5
18d
100
AcDbEntity
  8
Body
 62
7
100
AcDbPolyline
 90
3
 70
0
 10
322.740907
 20
267.775076
 30
0.0
 10
339.000902
 20
272.131825
 30
0.0
 10
339.000902
 20
272.131825
 30
0.0
  0
LWPOLYLINE
  5
18e
100
AcDbEntity
  8
Body
 62
7
100
AcDbPolyline
 90
2
 70
0
 10
322.740907
 20
267.775076
 30
0.0
 10
339.000902
 20
272.131825
 30
0.0
  0
LWPOLYLINE
  5
18f
100
AcDbEntity
  8
Body
 62
7
100
AcDbPolyline
 90
1
 70
1
 10
322.740907
 20
267.775076
 30
0.0
  0
LWPOLYLINE
  5
190
100
AcDbEntity
  8
Body
 62
7
100
AcDbPolyline
 90
6
 70
1
 10
367.343394
 20
191.029848
 30
0.0
 10
367.343394
 20
144.825361
 30
0.0
 10
367.343394
 20
131.785864
 30
0.0
 10
367.343394
 20
103.938372
 30
0.0
 10
367.343394
 20
121.360117
 30
0.0
 10
367.343394
 20
191.029848
 30
0.0
  0
LWPOLYLINE
  5
191
100
AcDbEntity
  8
Body
 62
7
100
AcDbPolyline
 90
2
 70
0
 10
353.693398
 20
276.069324
 30
0.0
 10
367.343394
 20
276.069324
 30
0.0
  0
LWPOLYLINE
  5
192
100
AcDbEntity
  8
Body
 62
7
100
AcDbPolyline
 90
2
 70
0
 10
339.000902
 20
272.131825
 30
0.0
 10
353.693398
 20
276.069324
 30
0.0
  0
SPLINE
  5
193
100
AcDbEntity
  8
Body
 62
7
100
AcDbSpline
 70
8
 71
3
 72
8
 73
4
 74
0
 40
0
 40
0
 40
0
 40
0
 40
1
 40
1
 40
1
 40
1
 10
338.997182
 20
215.389946
 30
0.0
 10
347.840595
 20
216.908426
 30
0.0
 10
354.304271
 20
224.576563
 30
0.0
 10
354.304264
 20
233.549396
 30
0.0
  0
SPLINE
  5
194
100
AcDbEntity
  8
Body
 62
7
100
AcDbSpline
 70
8
 71
3
 72
8
 73
4
 74
0
 40
0
 40
0
 40
0
 40
0
 40
1
 40
1
 40
1
 40
1
 10
354.304264
 20
233.549396
 30
0.0
 10
354.304256
 20
242.522229
 30
0.0
 10
347.840568
 20
250.190355
 30
0.0
 10
338.997152
 20
251.708821
 30
0.0
  0
LWPOLYLINE
  5
195
100
AcDbEntity
  8
Body
 62
7
100
AcDbPolyline
 90
2
 70
0
 10
339.000902
 20
251.707831
 30
0.0
 10
339.000902
 20
272.131825
 30
0.0
  0
LWPOLYLINE
  5
196
100
AcDbEntity
  8
Body
 62
7
100
AcDbPolyline
 90
2
 70
0
 10
339.000902
 20
194.967347
 30
0.0
 10
339.000902
 20
215.390591
 30
0.0
  0
LWPOLYLINE
  5
197
100
AcDbEntity
  8
Body
 62
7
100
AcDbPolyline
 90
2
 70
0
 10
353.693398
 20
191.029848
 30
0.0
 10
339.000902
 20
194.967347
 30
0.0
  0
LWPOLYLINE
  5
198
100
AcDbEntity
  8
Body
 62
7
100
AcDbPolyline
 90
2
 70
0
 10
367.343394
 20
191.029848
 30
0.0
 10
353.693398
 20
191.029848
 30
0.0
  0
LWPOLYLINE
  5
199
100
AcDbEntity
  8
Body
 62
7
100
AcDbPolyline
 90
2
 70
0
 10
367.343394
 20
276.069324
 30
0.0
 10
367.343394
 20
191.029848
 30
0.0
  0
LWPOLYLINE
  5
19a
100
AcDbEntity
  8
Body
 62
7
100
AcDbPolyline
 90
2
 70
0
 10
367.343394
 20
144.825361
 30
0.0
 10
339.000902
 20
144.825361
 30
0.0
  0
LWPOLYLINE
  5
19b
100
AcDbEntity
  8
Body
 62
7
100
AcDbPolyline
 90
2
 70
0
 10
367.343394
 20
131.785864
 30
0.0
 10
339.000902
 20
131.785864
 30
0.0
  0
LWPOLYLINE
  5
19c
100
AcDbEntity
  8
Body
 62
7
100
AcDbPolyline
 90
2
 70
0
 10
367.343394
 20
144.825361
 30
0.0
 10
367.343394
 20
131.785864
 30
0.0
  0
LWPOLYLINE
  5
19d
100
AcDbEntity
  8
Body
 62
7
100
AcDbPolyline
 90
2
 70
0
 10
339.000902
 20
144.825361
 30
0.0
 10
339.000902
 20
131.785864
 30
0.0
  0
LWPOLYLINE
  5
19e
100
AcDbEntity
  8
Body
 62
7
100
AcDbPolyline
 90
7
 70
0
 10
339.000902
 20
194.967347
 30
0.0
 10
339.000902
 20
144.825361
 30
0.0
 10
339.000902
 20
144.825361
 30
0.0
 10
339.000902
 20
194.967347
 30
0.0
 10
339.000902
 20
194.967347
 30
0.0
 10
322.740907
 20
199.324095
 30
0.0
 10
322.740907
 20
199.324095
 30
0.0
  0
LWPOLYLINE
  5
19f
100
AcDbEntity
  8
Body
 62
7
100
AcDbPolyline
 90
2
 70
0
 10
339.000902
 20
194.967347
 30
0.0
 10
322.740907
 20
199.324095
 30
0.0
  0
LWPOLYLINE
  5
1a0
100
AcDbEntity
  8
Body
 62
7
100
AcDbPolyline
 90
1
 70
1
 10
339.000902
 20
194.967347
 30
0.0
  0
LWPOLYLINE
  5
1a1
100
AcDbEntity
  8
Body
 62
7
100
AcDbPolyline
 90
1
 70
1
 10
322.740907
 20
267.775076
 30
0.0
  0
SPLINE
  5
1a2
100
AcDbEntity
  8
Body
 62
7
100
AcDbSpline
 70
8
 71
3
 72
8
 73
4
 74
0
 40
0
 40
0
 40
0
 40
0
 40
1
 40
1
 40
1
 40
1
 10
322.739819
 20
267.775091
 30
0.0
 10
307.249070
 20
263.624357
 30
0.0
 10
296.477511
 20
249.586587
 30
0.0
 10
296.477511
 20
233.549383
 30
0.0
  0
SPLINE
  5
1a3
100
AcDbEntity
  8
Body
 62
7
100
AcDbSpline
 70
8
 71
3
 72
8
 73
4
 74
0
 40
0
 40
0
 40
0
 40
0
 40
1
 40
1
 40
1
 40
1
 10
296.477511
 20
233.549383
 30
0.0
 10
296.477511
 20
217.512179
 30
0.0
 10
307.249070
 20
203.474410
 30
0.0
 10
322.739819
 20
199.323675
 30
0.0
  0
SPLINE
  5
1a4
100
AcDbEntity
  8
Body
 62
7
100
AcDbSpline
 70
8
 71
3
 72
8
 73
4
 74
0
 40
0
 40
0
 40
0
 40
0
 40
1
 40
1
 40
1
 40
1
 10
322.739819
 20
267.775091
 30
0.0
 10
307.249070
 20
263.624357
 30
0.0
 10
296.477511
 20
249.586587
 30
0.0
 10
296.477511
 20
233.549383
 30
0.0
  0
SPLINE
  5
1a5
100
AcDbEntity
  8
Body
 62
7
100
AcDbSpline
 70
8
 71
3
 72
8
 73
4
 74
0
 40
0
 40
0
 40
0
 40
0
 40
1
 40
1
 40
1
 40
1
 10
296.477511
 20
233.549383
 30
0.0
 10
296.477511
 20
217.512179
 30
0.0
 10
307.249070
 20
203.474410
 30
0.0
 10
322.739819
 20
199.323675
 30
0.0
  0
LWPOLYLINE
  5
1a6
100
AcDbEntity
  8
Body
 62
7
100
AcDbPolyline
 90
1
 70
1
 10
322.740907
 20
199.324095
 30
0.0
  0
LWPOLYLINE
  5
1a7
100
AcDbEntity
  8
Body
 62
7
100
AcDbPolyline
 90
2
 70
0
 10
322.740907
 20
267.775076
 30
0.0
 10
339.000902
 20
272.131825
 30
0.0
  0
SPLINE
  5
1a8
100
AcDbEntity
  8
Body
 62
7
100
AcDbSpline
 70
8
 71
3
 72
8
 73
4
 74
0
 40
0
 40
0
 40
0
 40
0
 40
1
 40
1
 40
1
 40
1
 10
338.997152
 20
251.708821
 30
0.0
 10
332.140239
 20
252.886196
 30
0.0
 10
325.204838
 20
250.100881
 30
0.0
 10
321.066955
 20
244.507904
 30
0.0
  0
SPLINE
  5
1a9
100
AcDbEntity
  8
Body
 62
7
100
AcDbSpline
 70
8
 71
3
 72
8
 73
4
 74
0
 40
0
 40
0
 40
0
 40
0
 40
1
 40
1
 40
1
 40
1
 10
321.066955
 20
244.507904
 30
0.0
 10
316.929072
 20
238.914926
 30
0.0
 10
316.294387
 20
231.468118
 30
0.0
 10
319.426093
 20
225.255559
 30
0.0
  0
SPLINE
  5
1aa
100
AcDbEntity
  8
Body
 62
7
100
AcDbSpline
 70
8
 71
3
 72
8
 73
4
 74
0
 40
0
 40
0
 40
0
 40
0
 40
1
 40
1
 40
1
 40
1
 10
319.426093
 20
225.255559
 30
0.0
 10
322.557799
 20
219.043001
 30
0.0
 10
328.921813
 20
215.124186
 30
0.0
 10
335.879073
 20
215.124191
 30
0.0
  0
SPLINE
  5
1ab
100
AcDbEntity
  8
Body
 62
7
100
AcDbSpline
 70
8
 71
3
 72
8
 73
4
 74
0
 40
0
 40
0
 40
0
 40
0
 40
1
 40
1
 40
1
 40
1
 10
335.879073
 20
215.124191
 30
0.0
 10
336.924099
 20
215.124190
 30
0.0
 10
337.967230
 20
215.213096
 30
0.0
 10
338.997182
 20
215.389946
 30
0.0
  0
LWPOLYLINE
  5
1ac
100
AcDbEntity
  8
Body
 62
7
100
AcDbPolyline
 90
2
 70
0
 10
339.000902
 20
251.707831
 30
0.0
 10
339.000902
 20
272.131825
 30
0.0
  0
LWPOLYLINE
  5
1ad
100
AcDbEntity
  8
Body
 62
7
100
AcDbPolyline
 90
2
 70
0
 10
339.000902
 20
194.967347
 30
0.0
 10
339.000902
 20
215.390591
 30
0.0
  0
SPLINE
  5
1ae
100
AcDbEntity
  8
Body
 62
7
100
AcDbSpline
 70
8
 71
3
 72
8
 73
4
 74
0
 40
0
 40
0
 40
0
 40
0
 40
1
 40
1
 40
1
 40
1
 10
322.739819
 20
267.775091
 30
0.0
 10
307.249070
 20
263.624357
 30
0.0
 10
296.477511
 20
249.586587
 30
0.0
 10
296.477511
 20
233.549383
 30
0.0
  0
SPLINE
  5
1af
100
AcDbEntity
  8
Body
 62
7
100
AcDbSpline
 70
8
 71
3
 72
8
 73
4
 74
0
 40
0
 40
0
 40
0
 40
0
 40
1
 40
1
 40
1
 40
1
 10
296.477511
 20
233.549383
 30
0.0
 10
296.477511
 20
217.512179
 30
0.0
 10
307.249070
 20
203.474410
 30
0.0
 10
322.739819
 20
199.323675
 30
0.0
  0
LWPOLYLINE
  5
1b0
100
AcDbEntity
  8
Body
 62
7
100
AcDbPolyline
 90
2
 70
0
 10
339.000902
 20
194.967347
 30
0.0
 10
322.740907
 20
199.324095
 30
0.0
  0
LWPOLYLINE
  5
1b1
100
AcDbEntity
  8
Body
 62
7
100
AcDbPolyline
 90
2
 70
0
 10
367.343394
 20
131.785864
 30
0.0
 10
339.000902
 20
131.785864
 30
0.0
  0
LWPOLYLINE
  5
1b2
100
AcDbEntity
  8
Body
 62
7
100
AcDbPolyline
 90
2
 70
0
 10
367.343394
 20
103.938372
 30
0.0
 10
339.000902
 20
103.938372
 30
0.0
  0
LWPOLYLINE
  5
1b3
100
AcDbEntity
  8
Body
 62
7
100
AcDbPolyline
 90
2
 70
0
 10
367.343394
 20
131.785864
 30
0.0
 10
367.343394
 20
103.938372
 30
0.0
  0
LWPOLYLINE
  5
1b4
100
AcDbEntity
  8
Body
 62
7
100
AcDbPolyline
 90
2
 70
0
 10
339.000902
 20
131.785864
 30
0.0
 10
339.000902
 20
103.938372
 30
0.0
  0
LWPOLYLINE
  5
1b5
100
AcDbEntity
  8
Body
 62
7
100
AcDbPolyline
 90
2
 70
0
 10
367.343394
 20
103.938372
 30
0.0
 10
339.000902
 20
103.938372
 30
0.0
  0
LWPOLYLINE
  5
1b6
100
AcDbEntity
  8
Body
 62
7
100
AcDbPolyline
 90
2
 70
0
 10
367.343394
 20
121.360117
 30
0.0
 10
339.000902
 20
121.360117
 30
0.0
  0
LWPOLYLINE
  5
1b7
100
AcDbEntity
  8
Body
 62
7
100
AcDbPolyline
 90
2
 70
0
 10
367.343394
 20
103.938372
 30
0.0
 10
367.343394
 20
121.360117
 30
0.0
  0
LWPOLYLINE
  5
1b8
100
AcDbEntity
  8
Body
 62
7
100
AcDbPolyline
 90
2
 70
0
 10
339.000902
 20
103.938372
 30
0.0
 10
339.000902
 20
121.360117
 30
0.0
  0
LWPOLYLINE
  5
1b9
100
AcDbEntity
  8
Body
 62
7
100
AcDbPolyline
 90
4
 70
0
 10
367.343394
 20
121.360117
 30
0.0
 10
367.343394
 20
191.029848
 30
0.0
 10
353.693398
 20
191.029848
 30
0.0
 10
339.000902
 20
194.967347
 30
0.0
  0
LWPOLYLINE
  5
1ba
100
AcDbEntity
  8
Body
 62
7
100
AcDbPolyline
 90
2
 70
0
 10
339.000902
 20
144.825361
 30
0.0
 10
339.000902
 20
194.967347
 30
0.0
  0
LWPOLYLINE
  5
1bb
100
AcDbEntity
  8
Body
 62
7
100
AcDbPolyline
 90
2
 70
0
 10
339.000902
 20
121.360117
 30
0.0
 10
339.000902
 20
144.825361
 30
0.0
  0
LWPOLYLINE
  5
1bc
100
AcDbEntity
  8
Body
 62
7
100
AcDbPolyline
 90
2
 70
0
 10
367.343394
 20
121.360117
 30
0.0
 10
339.000902
 20
121.360117
 30
0.0
  0
LWPOLYLINE
  5
1bd
100
AcDbEntity
  8
Body
 62
7
100
AcDbPolyline
 90
2
 70
0
 10
339.000902
 20
144.825361
 30
0.0
 10
225.608434
 20
144.825361
 30
0.0
  0
LWPOLYLINE
  5
1be
100
AcDbEntity
  8
Body
 62
7
100
AcDbPolyline
 90
2
 70
0
 10
339.000902
 20
131.785864
 30
0.0
 10
225.608434
 20
131.785864
 30
0.0
  0
LWPOLYLINE
  5
1bf
100
AcDbEntity
  8
Body
 62
7
100
AcDbPolyline
 90
2
 70
0
 10
339.000902
 20
144.825361
 30
0.0
 10
339.000902
 20
131.785864
 30
0.0
  0
LWPOLYLINE
  5
1c0
100
AcDbEntity
  8
Body
 62
7
100
AcDbPolyline
 90
2
 70
0
 10
225.608434
 20
144.825361
 30
0.0
 10
225.608434
 20
131.785864
 30
0.0
  0
LWPOLYLINE
  5
1c1
100
AcDbEntity
  8
Body
 62
7
100
AcDbPolyline
 90
2
 70
0
 10
339.000902
 20
144.825361
 30
0.0
 10
225.608434
 20
144.825361
 30
0.0
  0
LWPOLYLINE
  5
1c2
100
AcDbEntity
  8
Body
 62
7
100
AcDbPolyline
 90
2
 70
0
 10
339.000902
 20
144.825361
 30
0.0
 10
225.608434
 20
144.825361
 30
0.0
  0
LWPOLYLINE
  5
1c3
100
AcDbEntity
  8
Body
 62
7
100
AcDbPolyline
 90
1
 70
1
 10
339.000902
 20
144.825361
 30
0.0
  0
LWPOLYLINE
  5
1c4
100
AcDbEntity
  8
Body
 62
7
100
AcDbPolyline
 90
1
 70
1
 10
225.608434
 20
144.825361
 30
0.0
  0
LWPOLYLINE
  5
1c5
100
AcDbEntity
  8
Body
 62
7
100
AcDbPolyline
 90
2
 70
0
 10
339.000902
 20
131.785864
 30
0.0
 10
225.608434
 20
131.785864
 30
0.0
  0
LWPOLYLINE
  5
1c6
100
AcDbEntity
  8
Body
 62
7
100
AcDbPolyline
 90
2
 70
0
 10
339.000902
 20
103.938372
 30
0.0
 10
225.608434
 20
103.938372
 30
0.0
  0
LWPOLYLINE
  5
1c7
100
AcDbEntity
  8
Body
 62
7
100
AcDbPolyline
 90
2
 70
0
 10
339.000902
 20
131.785864
 30
0.0
 10
339.000902
 20
103.938372
 30
0.0
  0
LWPOLYLINE
  5
1c8
100
AcDbEntity
  8
Body
 62
7
100
AcDbPolyline
 90
2
 70
0
 10
225.608434
 20
131.785864
 30
0.0
 10
225.608434
 20
103.938372
 30
0.0
  0
LWPOLYLINE
  5
1c9
100
AcDbEntity
  8
Body
 62
7
100
AcDbPolyline
 90
2
 70
0
 10
339.000902
 20
103.938372
 30
0.0
 10
225.608434
 20
103.938372
 30
0.0
  0
LWPOLYLINE
  5
1ca
100
AcDbEntity
  8
Body
 62
7
100
AcDbPolyline
 90
2
 70
0
 10
339.000902
 20
121.360117
 30
0.0
 10
225.608434
 20
121.360117
 30
0.0
  0
LWPOLYLINE
  5
1cb
100
AcDbEntity
  8
Body
 62
7
100
AcDbPolyline
 90
2
 70
0
 10
339.000902
 20
103.938372
 30
0.0
 10
339.000902
 20
121.360117
 30
0.0
  0
LWPOLYLINE
  5
1cc
100
AcDbEntity
  8
Body
 62
7
100
AcDbPolyline
 90
2
 70
0
 10
225.608434
 20
103.938372
 30
0.0
 10
225.608434
 20
121.360117
 30
0.0
  0
LWPOLYLINE
  5
1cd
100
AcDbEntity
  8
Body
 62
7
100
AcDbPolyline
 90
2
 70
0
 10
339.000902
 20
144.825361
 30
0.0
 10
225.608434
 20
144.825361
 30
0.0
  0
LWPOLYLINE
  5
1ce
100
AcDbEntity
  8
Body
 62
7
100
AcDbPolyline
 90
2
 70
0
 10
339.000902
 20
121.360117
 30
0.0
 10
225.608434
 20
121.360117
 30
0.0
  0
LWPOLYLINE
  5
1cf
100
AcDbEntity
  8
Body
 62
7
100
AcDbPolyline
 90
2
 70
0
 10
339.000902
 20
121.360117
 30
0.0
 10
339.000902
 20
144.825361
 30
0.0
  0
LWPOLYLINE
  5
1d0
100
AcDbEntity
  8
Body
 62
7
100
AcDbPolyline
 90
2
 70
0
 10
225.608434
 20
144.825361
 30
0.0
 10
225.608434
 20
121.360117
 30
0.0
  0
LWPOLYLINE
  5
1d1
100
AcDbEntity
  8
Body
 62
7
100
AcDbPolyline
 90
4
 70
0
 10
225.608434
 20
144.825361
 30
0.0
 10
225.608434
 20
131.785864
 30
0.0
 10
225.608434
 20
103.938372
 30
0.0
 10
225.608434
 20
121.360117
 30
0.0
  0
LWPOLYLINE
  5
1d2
100
AcDbEntity
  8
Body
 62
7
100
AcDbPolyline
 90
2
 70
0
 10
225.608434
 20
144.825361
 30
0.0
 10
225.608434
 20
121.360117
 30
0.0
  0
LWPOLYLINE
  5
1d3
100
AcDbEntity
  8
Body
 62
7
100
AcDbPolyline
 90
1
 70
1
 10
225.608434
 20
144.825361
 30
0.0
  0
ENDSEC
  0
SECTION
  2
OBJECTS
  0
DICTIONARY
  5
C
330
0
100
AcDbDictionary
  3
ACAD_GROUP
350
D
  3
ACAD_MLINESTYLE
350
17
  0
DICTIONARY
  5
D
330
C
100
AcDbDictionary
  0
DICTIONARY
  5
1A
330
C
100
AcDbDictionary
  0
DICTIONARY
  5
17
330
C
100
AcDbDictionary
  3
STANDARD
350
18
  0
DICTIONARY
  5
19
330
C
100
AcDbDictionary
  0
ENDSEC
  0
EOF
