  0
SECTION
  2
HEADER
  9
$ACADVER
  1
AC1014
  9
$HANDSEED
  5
FFFF
  9
$MEASUREMENT
 70
     1
  0
ENDSEC
  0
SECTION
  2
TABLES
  0
TABLE
  2
VPORT
  5
8
330
0
100
AcDbSymbolTable
 70
     4
  0
VPORT
  5
2E
330
8
100
AcDbSymbolTableRecord
100
AcDbViewportTableRecord
  2
*ACTIVE
 70
     0
 10
0.0
 20
0.0
 11
1.0
 21
1.0
 12
210.0
 22
148.5
 13
0.0
 23
0.0
 14
10.0
 24
10.0
 15
10.0
 25
10.0
 16
0.0
 26
0.0
 36
1.0
 17
0.0
 27
0.0
 37
0.0
 40
341.0
 41
1.24
 42
50.0
 43
0.0
 44
0.0
 50
0.0
 51
0.0
 71
     0
 72
   100
 73
     1
 74
     3
 75
     0
 76
     0
 77
     0
 78
     0
  0
ENDTAB
  0
TABLE
  2
LTYPE
  5
5
330
0
100
AcDbSymbolTable
 70
     1
  0
LTYPE
  5
14
330
5
100
AcDbSymbolTableRecord
100
AcDbLinetypeTableRecord
  2
BYBLOCK
 70
     0
  3

 72
    65
 73
     0
 40
0.0
  0
LTYPE
  5
15
330
5
100
AcDbSymbolTableRecord
100
AcDbLinetypeTableRecord
  2
BYLAYER
 70
     0
  3

 72
    65
 73
     0
 40
0.0
  0
LTYPE
  5
16
330
5
100
AcDbSymbolTableRecord
100
AcDbLinetypeTableRecord
  2
CONTINUOUS
 70
     0
  3
Solid line
 72
    65
 73
     0
 40
0.0
  0
ENDTAB
  0
TABLE
  2
LAYER
  5
2
100
AcDbSymbolTable
 70
3
  0
LAYER
  5
50
100
AcDbSymbolTableRecord
100
AcDbLayerTableRecord
  2
0
 70
0
  6
CONTINUOUS
  0
LAYER
  5
51
100
AcDbSymbolTableRecord
100
AcDbLayerTableRecord
  2
none
 70
0
  6
CONTINUOUS
  0
LAYER
  5
52
100
AcDbSymbolTableRecord
100
AcDbLayerTableRecord
  2
Body
 70
0
  6
CONTINUOUS
  0
ENDTAB
  0
TABLE
  2
STYLE
  5
3
330
0
100
AcDbSymbolTable
 70
     1
  0
STYLE
  5
11
330
3
100
AcDbSymbolTableRecord
100
AcDbTextStyleTableRecord
  2
STANDARD
 70
     0
 40
0.0
 41
1.0
 50
0.0
 71
     0
 42
2.5
  3
txt
  4

  0
ENDTAB
  0
TABLE
  2
VIEW
  5
6
330
0
100
AcDbSymbolTable
 70
     0
  0
ENDTAB
  0
TABLE
  2
UCS
  5
7
330
0
100
AcDbSymbolTable
 70
     0
  0
ENDTAB
  0
TABLE
  2
APPID
  5
9
330
0
100
AcDbSymbolTable
 70
     2
  0
APPID
  5
12
330
9
100
AcDbSymbolTableRecord
100
AcDbRegAppTableRecord
  2
ACAD
 70
     0
  0
ENDTAB
  0
TABLE
  2
DIMSTYLE
  5
A
330
0
100
AcDbSymbolTable
 70
     1
  0
DIMSTYLE
105
27
330
A
100
AcDbSymbolTableRecord
100
AcDbDimStyleTableRecord
  2
ISO-25
 70
     0
  3

  4

  5

  6

  7

 40
1.0
 41
2.5
 42
0.625
 43
3.75
 44
1.25
 45
0.0
 46
0.0
 47
0.0
 48
0.0
140
2.5
141
2.5
142
0.0
143
0.03937007874016
144
1.0
145
0.0
146
1.0
147
0.625
 71
     0
 72
     0
 73
     0
 74
     0
 75
     0
 76
     0
 77
     1
 78
     8
170
     0
171
     3
172
     1
173
     0
174
     0
175
     0
176
     0
177
     0
178
     0
270
     2
271
     2
272
     2
273
     2
274
     3
340
11
275
     0
280
     0
281
     0
282
     0
283
     0
284
     8
285
     0
286
     0
287
     3
288
     0
  0
ENDTAB
  0
TABLE
  2
BLOCK_RECORD
  5
1
330
0
100
AcDbSymbolTable
 70
     1
  0
BLOCK_RECORD
  5
1F
330
1
100
AcDbSymbolTableRecord
100
AcDbBlockTableRecord
  2
*MODEL_SPACE
  0
BLOCK_RECORD
  5
1B
330
1
100
AcDbSymbolTableRecord
100
AcDbBlockTableRecord
  2
*PAPER_SPACE
  0
ENDTAB
  0
ENDSEC
  0
SECTION
  2
BLOCKS
  0
BLOCK
  5
20
330
1F
100
AcDbEntity
  8
0
100
AcDbBlockBegin
  2
*MODEL_SPACE
 70
     0
 10
0.0
 20
0.0
 30
0.0
  3
*MODEL_SPACE
  1

  0
ENDBLK
  5
21
330
1F
100
AcDbEntity
  8
0
100
AcDbBlockEnd
  0
BLOCK
  5
1C
330
1B
100
AcDbEntity
 67
     1
  8
0
100
AcDbBlockBegin
  2
*PAPER_SPACE
  1

  0
ENDBLK
  5
1D
330
1B
100
AcDbEntity
 67
     1
  8
0
100
AcDbBlockEnd
  0
ENDSEC
  0
SECTION
  2
ENTITIES
  0
LWPOLYLINE
  5
100
100
AcDbEntity
  8
Body
 62
7
100
AcDbPolyline
 90
2
 70
0
 10
362.177358
 20
767.062543
 30
0.0
 10
362.177358
 20
611.157087
 30
0.0
  0
LWPOLYLINE
  5
101
100
AcDbEntity
  8
Body
 62
7
100
AcDbPolyline
 90
2
 70
0
 10
333.834866
 20
611.157087
 30
0.0
 10
362.177358
 20
611.157087
 30
0.0
  0
LWPOLYLINE
  5
102
100
AcDbEntity
  8
Body
 62
7
100
AcDbPolyline
 90
2
 70
0
 10
333.834866
 20
738.716077
 30
0.0
 10
333.834866
 20
611.157087
 30
0.0
  0
LWPOLYLINE
  5
103
100
AcDbEntity
  8
Body
 62
7
100
AcDbPolyline
 90
2
 70
0
 10
333.834866
 20
767.062543
 30
0.0
 10
333.834866
 20
738.716077
 30
0.0
  0
LWPOLYLINE
  5
104
100
AcDbEntity
  8
Body
 62
7
100
AcDbPolyline
 90
2
 70
0
 10
362.177358
 20
767.062543
 30
0.0
 10
333.834866
 20
767.062543
 30
0.0
  0
LWPOLYLINE
  5
105
100
AcDbEntity
  8
Body
 62
7
100
AcDbPolyline
 90
4
 70
1
 10
362.177358
 20
767.062543
 30
0.0
 10
362.177358
 20
611.157087
 30
0.0
 10
362.177358
 20
611.157087
 30
0.0
 10
362.177358
 20
767.062543
 30
0.0
  0
LWPOLYLINE
  5
106
100
AcDbEntity
  8
Body
 62
7
100
AcDbPolyline
 90
3
 70
0
 10
362.177358
 20
611.157087
 30
0.0
 10
362.177358
 20
526.117611
 30
0.0
 10
333.834866
 20
526.117611
 30
0.0
  0
SPLINE
  5
107
100
AcDbEntity
  8
Body
 62
7
100
AcDbSpline
 70
8
 71
3
 72
8
 73
4
 74
0
 40
0
 40
0
 40
0
 40
0
 40
1
 40
1
 40
1
 40
1
 10
333.831146
 20
550.477972
 30
0.0
 10
342.674559
 20
551.996452
 30
0.0
 10
349.138235
 20
559.664589
 30
0.0
 10
349.138228
 20
568.637422
 30
0.0
  0
SPLINE
  5
108
100
AcDbEntity
  8
Body
 62
7
100
AcDbSpline
 70
8
 71
3
 72
8
 73
4
 74
0
 40
0
 40
0
 40
0
 40
0
 40
1
 40
1
 40
1
 40
1
 10
349.138228
 20
568.637422
 30
0.0
 10
349.138220
 20
577.610255
 30
0.0
 10
342.674532
 20
585.278381
 30
0.0
 10
333.831116
 20
586.796847
 30
0.0
  0
LWPOLYLINE
  5
109
100
AcDbEntity
  8
Body
 62
7
100
AcDbPolyline
 90
2
 70
0
 10
333.834866
 20
550.478354
 30
0.0
 10
333.834866
 20
526.117611
 30
0.0
  0
LWPOLYLINE
  5
10a
100
AcDbEntity
  8
Body
 62
7
100
AcDbPolyline
 90
2
 70
0
 10
333.834866
 20
611.157087
 30
0.0
 10
333.834866
 20
586.796344
 30
0.0
  0
LWPOLYLINE
  5
10b
100
AcDbEntity
  8
Body
 62
7
100
AcDbPolyline
 90
2
 70
0
 10
333.834866
 20
611.157087
 30
0.0
 10
362.177358
 20
611.157087
 30
0.0
  0
LWPOLYLINE
  5
10c
100
AcDbEntity
  8
Body
 62
7
100
AcDbPolyline
 90
6
 70
0
 10
333.834866
 20
738.716077
 30
0.0
 10
333.834866
 20
611.157087
 30
0.0
 10
333.834866
 20
611.157087
 30
0.0
 10
333.834866
 20
738.716077
 30
0.0
 10
333.834866
 20
738.716077
 30
0.0
 10
220.442398
 20
738.716077
 30
0.0
  0
LWPOLYLINE
  5
10d
100
AcDbEntity
  8
Body
 62
7
100
AcDbPolyline
 90
2
 70
0
 10
333.834866
 20
767.062543
 30
0.0
 10
220.442398
 20
767.062543
 30
0.0
  0
LWPOLYLINE
  5
10e
100
AcDbEntity
  8
Body
 62
7
100
AcDbPolyline
 90
2
 70
0
 10
333.834866
 20
767.062543
 30
0.0
 10
333.834866
 20
738.716077
 30
0.0
  0
LWPOLYLINE
  5
10f
100
AcDbEntity
  8
Body
 62
7
100
AcDbPolyline
 90
2
 70
0
 10
220.442398
 20
738.716077
 30
0.0
 10
220.442398
 20
767.062543
 30
0.0
  0
LWPOLYLINE
  5
110
100
AcDbEntity
  8
Body
 62
7
100
AcDbPolyline
 90
2
 70
0
 10
362.177358
 20
767.062543
 30
0.0
 10
333.834866
 20
767.062543
 30
0.0
  0
LWPOLYLINE
  5
111
100
AcDbEntity
  8
Body
 62
7
100
AcDbPolyline
 90
2
 70
0
 10
362.177358
 20
767.062543
 30
0.0
 10
333.834866
 20
767.062543
 30
0.0
  0
LWPOLYLINE
  5
112
100
AcDbEntity
  8
Body
 62
7
100
AcDbPolyline
 90
1
 70
1
 10
362.177358
 20
767.062543
 30
0.0
  0
LWPOLYLINE
  5
113
100
AcDbEntity
  8
Body
 62
7
100
AcDbPolyline
 90
1
 70
1
 10
333.834866
 20
767.062543
 30
0.0
  0
LWPOLYLINE
  5
114
100
AcDbEntity
  8
Body
 62
7
100
AcDbPolyline
 90
1
 70
1
 10
362.177358
 20
611.157087
 30
0.0
  0
LWPOLYLINE
  5
115
100
AcDbEntity
  8
Body
 62
7
100
AcDbPolyline
 90
1
 70
1
 10
362.177358
 20
526.117611
 30
0.0
  0
LWPOLYLINE
  5
116
100
AcDbEntity
  8
Body
 62
7
100
AcDbPolyline
 90
2
 70
0
 10
362.177358
 20
611.157087
 30
0.0
 10
362.177358
 20
526.117611
 30
0.0
  0
LWPOLYLINE
  5
117
100
AcDbEntity
  8
Body
 62
7
100
AcDbPolyline
 90
2
 70
0
 10
362.177358
 20
611.157087
 30
0.0
 10
362.177358
 20
526.117611
 30
0.0
  0
LWPOLYLINE
  5
118
100
AcDbEntity
  8
Body
 62
7
100
AcDbPolyline
 90
3
 70
0
 10
362.177358
 20
611.157087
 30
0.0
 10
362.177358
 20
767.062543
 30
0.0
 10
333.834866
 20
767.062543
 30
0.0
  0
LWPOLYLINE
  5
119
100
AcDbEntity
  8
Body
 62
7
100
AcDbPolyline
 90
2
 70
0
 10
333.834866
 20
738.716077
 30
0.0
 10
333.834866
 20
767.062543
 30
0.0
  0
LWPOLYLINE
  5
11a
100
AcDbEntity
  8
Body
 62
7
100
AcDbPolyline
 90
2
 70
0
 10
333.834866
 20
611.157087
 30
0.0
 10
333.834866
 20
738.716077
 30
0.0
  0
LWPOLYLINE
  5
11b
100
AcDbEntity
  8
Body
 62
7
100
AcDbPolyline
 90
2
 70
0
 10
333.834866
 20
611.157087
 30
0.0
 10
362.177358
 20
611.157087
 30
0.0
  0
LWPOLYLINE
  5
11c
100
AcDbEntity
  8
Body
 62
7
100
AcDbPolyline
 90
2
 70
0
 10
362.177358
 20
526.117611
 30
0.0
 10
362.177358
 20
269.015433
 30
0.0
  0
LWPOLYLINE
  5
11d
100
AcDbEntity
  8
Body
 62
7
100
AcDbPolyline
 90
2
 70
0
 10
333.834866
 20
269.015433
 30
0.0
 10
362.177358
 20
269.015433
 30
0.0
  0
LWPOLYLINE
  5
11e
100
AcDbEntity
  8
Body
 62
7
100
AcDbPolyline
 90
2
 70
0
 10
333.834866
 20
526.117611
 30
0.0
 10
333.834866
 20
269.015433
 30
0.0
  0
LWPOLYLINE
  5
11f
100
AcDbEntity
  8
Body
 62
7
100
AcDbPolyline
 90
2
 70
0
 10
362.177358
 20
526.117611
 30
0.0
 10
333.834866
 20
526.117611
 30
0.0
  0
SPLINE
  5
120
100
AcDbEntity
  8
Body
 62
7
100
AcDbSpline
 70
8
 71
3
 72
8
 73
4
 74
0
 40
0
 40
0
 40
0
 40
0
 40
1
 40
1
 40
1
 40
1
 10
333.831116
 20
586.796847
 30
0.0
 10
326.974203
 20
587.974222
 30
0.0
 10
320.038802
 20
585.188907
 30
0.0
 10
315.900919
 20
579.595929
 30
0.0
  0
SPLINE
  5
121
100
AcDbEntity
  8
Body
 62
7
100
AcDbSpline
 70
8
 71
3
 72
8
 73
4
 74
0
 40
0
 40
0
 40
0
 40
0
 40
1
 40
1
 40
1
 40
1
 10
315.900919
 20
579.595929
 30
0.0
 10
311.763036
 20
574.002952
 30
0.0
 10
311.128351
 20
566.556144
 30
0.0
 10
314.260057
 20
560.343585
 30
0.0
  0
SPLINE
  5
122
100
AcDbEntity
  8
Body
 62
7
100
AcDbSpline
 70
8
 71
3
 72
8
 73
4
 74
0
 40
0
 40
0
 40
0
 40
0
 40
1
 40
1
 40
1
 40
1
 10
314.260057
 20
560.343585
 30
0.0
 10
317.391763
 20
554.131026
 30
0.0
 10
323.755777
 20
550.212212
 30
0.0
 10
330.713037
 20
550.212217
 30
0.0
  0
SPLINE
  5
123
100
AcDbEntity
  8
Body
 62
7
100
AcDbSpline
 70
8
 71
3
 72
8
 73
4
 74
0
 40
0
 40
0
 40
0
 40
0
 40
1
 40
1
 40
1
 40
1
 10
330.713037
 20
550.212217
 30
0.0
 10
331.758063
 20
550.212216
 30
0.0
 10
332.801194
 20
550.301122
 30
0.0
 10
333.831146
 20
550.477972
 30
0.0
  0
LWPOLYLINE
  5
124
100
AcDbEntity
  8
Body
 62
7
100
AcDbPolyline
 90
2
 70
0
 10
333.834866
 20
611.157087
 30
0.0
 10
333.834866
 20
586.796344
 30
0.0
  0
SPLINE
  5
125
100
AcDbEntity
  8
Body
 62
7
100
AcDbSpline
 70
8
 71
3
 72
8
 73
4
 74
0
 40
0
 40
0
 40
0
 40
0
 40
1
 40
1
 40
1
 40
1
 10
311.628220
 20
600.684225
 30
0.0
 10
299.224956
 20
594.833670
 30
0.0
 10
291.311441
 20
582.351170
 30
0.0
 10
291.311478
 20
568.637310
 30
0.0
  0
SPLINE
  5
126
100
AcDbEntity
  8
Body
 62
7
100
AcDbSpline
 70
8
 71
3
 72
8
 73
4
 74
0
 40
0
 40
0
 40
0
 40
0
 40
1
 40
1
 40
1
 40
1
 10
291.311478
 20
568.637310
 30
0.0
 10
291.311515
 20
554.923450
 30
0.0
 10
299.225097
 20
542.440992
 30
0.0
 10
311.628393
 20
536.590503
 30
0.0
  0
LWPOLYLINE
  5
127
100
AcDbEntity
  8
Body
 62
7
100
AcDbPolyline
 90
3
 70
0
 10
333.834866
 20
550.478354
 30
0.0
 10
333.834866
 20
526.117611
 30
0.0
 10
311.627373
 20
536.590608
 30
0.0
  0
LWPOLYLINE
  5
128
100
AcDbEntity
  8
Body
 62
7
100
AcDbPolyline
 90
2
 70
0
 10
333.834866
 20
611.157087
 30
0.0
 10
311.627373
 20
600.684090
 30
0.0
  0
SPLINE
  5
129
100
AcDbEntity
  8
Body
 62
7
100
AcDbSpline
 70
8
 71
3
 72
8
 73
4
 74
0
 40
0
 40
0
 40
0
 40
0
 40
1
 40
1
 40
1
 40
1
 10
330.713037
 20
550.212217
 30
0.0
 10
331.758063
 20
550.212216
 30
0.0
 10
332.801194
 20
550.301122
 30
0.0
 10
333.831146
 20
550.477972
 30
0.0
  0
SPLINE
  5
12a
100
AcDbEntity
  8
Body
 62
7
100
AcDbSpline
 70
8
 71
3
 72
8
 73
4
 74
0
 40
0
 40
0
 40
0
 40
0
 40
1
 40
1
 40
1
 40
1
 10
333.831146
 20
550.477972
 30
0.0
 10
342.674559
 20
551.996452
 30
0.0
 10
349.138235
 20
559.664589
 30
0.0
 10
349.138228
 20
568.637422
 30
0.0
  0
SPLINE
  5
12b
100
AcDbEntity
  8
Body
 62
7
100
AcDbSpline
 70
8
 71
3
 72
8
 73
4
 74
0
 40
0
 40
0
 40
0
 40
0
 40
1
 40
1
 40
1
 40
1
 10
349.138228
 20
568.637422
 30
0.0
 10
349.138220
 20
577.610255
 30
0.0
 10
342.674532
 20
585.278381
 30
0.0
 10
333.831116
 20
586.796847
 30
0.0
  0
SPLINE
  5
12c
100
AcDbEntity
  8
Body
 62
7
100
AcDbSpline
 70
8
 71
3
 72
8
 73
4
 74
0
 40
0
 40
0
 40
0
 40
0
 40
1
 40
1
 40
1
 40
1
 10
333.831116
 20
586.796847
 30
0.0
 10
326.974203
 20
587.974222
 30
0.0
 10
320.038802
 20
585.188907
 30
0.0
 10
315.900919
 20
579.595929
 30
0.0
  0
SPLINE
  5
12d
100
AcDbEntity
  8
Body
 62
7
100
AcDbSpline
 70
8
 71
3
 72
8
 73
4
 74
0
 40
0
 40
0
 40
0
 40
0
 40
1
 40
1
 40
1
 40
1
 10
315.900919
 20
579.595929
 30
0.0
 10
311.763036
 20
574.002952
 30
0.0
 10
311.128351
 20
566.556144
 30
0.0
 10
314.260057
 20
560.343585
 30
0.0
  0
SPLINE
  5
12e
100
AcDbEntity
  8
Body
 62
7
100
AcDbSpline
 70
8
 71
3
 72
8
 73
4
 74
0
 40
0
 40
0
 40
0
 40
0
 40
1
 40
1
 40
1
 40
1
 10
314.260057
 20
560.343585
 30
0.0
 10
317.391763
 20
554.131026
 30
0.0
 10
323.755777
 20
550.212212
 30
0.0
 10
330.713037
 20
550.212217
 30
0.0
  0
SPLINE
  5
12f
100
AcDbEntity
  8
Body
 62
7
100
AcDbSpline
 70
8
 71
3
 72
8
 73
4
 74
0
 40
0
 40
0
 40
0
 40
0
 40
1
 40
1
 40
1
 40
1
 10
333.831116
 20
586.796847
 30
0.0
 10
326.974203
 20
587.974222
 30
0.0
 10
320.038802
 20
585.188907
 30
0.0
 10
315.900919
 20
579.595929
 30
0.0
  0
SPLINE
  5
130
100
AcDbEntity
  8
Body
 62
7
100
AcDbSpline
 70
8
 71
3
 72
8
 73
4
 74
0
 40
0
 40
0
 40
0
 40
0
 40
1
 40
1
 40
1
 40
1
 10
315.900919
 20
579.595929
 30
0.0
 10
311.763036
 20
574.002952
 30
0.0
 10
311.128351
 20
566.556144
 30
0.0
 10
314.260057
 20
560.343585
 30
0.0
  0
SPLINE
  5
131
100
AcDbEntity
  8
Body
 62
7
100
AcDbSpline
 70
8
 71
3
 72
8
 73
4
 74
0
 40
0
 40
0
 40
0
 40
0
 40
1
 40
1
 40
1
 40
1
 10
314.260057
 20
560.343585
 30
0.0
 10
317.391763
 20
554.131026
 30
0.0
 10
323.755777
 20
550.212212
 30
0.0
 10
330.713037
 20
550.212217
 30
0.0
  0
SPLINE
  5
132
100
AcDbEntity
  8
Body
 62
7
100
AcDbSpline
 70
8
 71
3
 72
8
 73
4
 74
0
 40
0
 40
0
 40
0
 40
0
 40
1
 40
1
 40
1
 40
1
 10
333.831146
 20
550.477972
 30
0.0
 10
342.674559
 20
551.996452
 30
0.0
 10
349.138235
 20
559.664589
 30
0.0
 10
349.138228
 20
568.637422
 30
0.0
  0
SPLINE
  5
133
100
AcDbEntity
  8
Body
 62
7
100
AcDbSpline
 70
8
 71
3
 72
8
 73
4
 74
0
 40
0
 40
0
 40
0
 40
0
 40
1
 40
1
 40
1
 40
1
 10
349.138228
 20
568.637422
 30
0.0
 10
349.138220
 20
577.610255
 30
0.0
 10
342.674532
 20
585.278381
 30
0.0
 10
333.831116
 20
586.796847
 30
0.0
  0
SPLINE
  5
134
100
AcDbEntity
  8
Body
 62
7
100
AcDbSpline
 70
8
 71
3
 72
8
 73
4
 74
0
 40
0
 40
0
 40
0
 40
0
 40
1
 40
1
 40
1
 40
1
 10
330.713037
 20
550.212217
 30
0.0
 10
331.758063
 20
550.212216
 30
0.0
 10
332.801194
 20
550.301122
 30
0.0
 10
333.831146
 20
550.477972
 30
0.0
  0
LWPOLYLINE
  5
135
100
AcDbEntity
  8
Body
 62
7
100
AcDbPolyline
 90
2
 70
1
 10
330.714867
 20
550.212104
 30
0.0
 10
330.714867
 20
550.212104
 30
0.0
  0
LWPOLYLINE
  5
136
100
AcDbEntity
  8
Body
 62
7
100
AcDbPolyline
 90
1
 70
1
 10
333.834866
 20
611.157087
 30
0.0
  0
LWPOLYLINE
  5
137
100
AcDbEntity
  8
Body
 62
7
100
AcDbPolyline
 90
1
 70
1
 10
311.627373
 20
600.684090
 30
0.0
  0
LWPOLYLINE
  5
138
100
AcDbEntity
  8
Body
 62
7
100
AcDbPolyline
 90
2
 70
0
 10
333.834866
 20
611.157087
 30
0.0
 10
311.627373
 20
600.684090
 30
0.0
  0
LWPOLYLINE
  5
139
100
AcDbEntity
  8
Body
 62
7
100
AcDbPolyline
 90
2
 70
0
 10
333.834866
 20
611.157087
 30
0.0
 10
311.627373
 20
600.684090
 30
0.0
  0
LWPOLYLINE
  5
13a
100
AcDbEntity
  8
Body
 62
7
100
AcDbPolyline
 90
2
 70
0
 10
333.834866
 20
738.716077
 30
0.0
 10
220.442398
 20
738.716077
 30
0.0
  0
LWPOLYLINE
  5
13b
100
AcDbEntity
  8
Body
 62
7
100
AcDbPolyline
 90
2
 70
0
 10
333.834866
 20
738.716077
 30
0.0
 10
220.442398
 20
738.716077
 30
0.0
  0
LWPOLYLINE
  5
13c
100
AcDbEntity
  8
Body
 62
7
100
AcDbPolyline
 90
1
 70
1
 10
333.834866
 20
738.716077
 30
0.0
  0
LWPOLYLINE
  5
13d
100
AcDbEntity
  8
Body
 62
7
100
AcDbPolyline
 90
1
 70
1
 10
220.442398
 20
738.716077
 30
0.0
  0
LWPOLYLINE
  5
13e
100
AcDbEntity
  8
Body
 62
7
100
AcDbPolyline
 90
2
 70
0
 10
333.834866
 20
767.062543
 30
0.0
 10
220.442398
 20
767.062543
 30
0.0
  0
LWPOLYLINE
  5
13f
100
AcDbEntity
  8
Body
 62
7
100
AcDbPolyline
 90
2
 70
0
 10
333.834866
 20
767.062543
 30
0.0
 10
220.442398
 20
767.062543
 30
0.0
  0
LWPOLYLINE
  5
140
100
AcDbEntity
  8
Body
 62
7
100
AcDbPolyline
 90
1
 70
1
 10
333.834866
 20
767.062543
 30
0.0
  0
LWPOLYLINE
  5
141
100
AcDbEntity
  8
Body
 62
7
100
AcDbPolyline
 90
5
 70
1
 10
220.442398
 20
767.062543
 30
0.0
 10
220.442398
 20
767.062543
 30
0.0
 10
220.442398
 20
738.716077
 30
0.0
 10
220.442398
 20
738.716077
 30
0.0
 10
220.442398
 20
767.062543
 30
0.0
  0
LWPOLYLINE
  5
142
100
AcDbEntity
  8
Body
 62
7
100
AcDbPolyline
 90
4
 70
1
 10
362.177358
 20
526.117611
 30
0.0
 10
362.177358
 20
269.015433
 30
0.0
 10
362.177358
 20
269.015433
 30
0.0
 10
362.177358
 20
526.117611
 30
0.0
  0
LWPOLYLINE
  5
143
100
AcDbEntity
  8
Body
 62
7
100
AcDbPolyline
 90
2
 70
0
 10
333.834866
 20
611.157087
 30
0.0
 10
362.177358
 20
611.157087
 30
0.0
  0
SPLINE
  5
144
100
AcDbEntity
  8
Body
 62
7
100
AcDbSpline
 70
8
 71
3
 72
8
 73
4
 74
0
 40
0
 40
0
 40
0
 40
0
 40
1
 40
1
 40
1
 40
1
 10
333.831146
 20
550.477972
 30
0.0
 10
342.674559
 20
551.996452
 30
0.0
 10
349.138235
 20
559.664589
 30
0.0
 10
349.138228
 20
568.637422
 30
0.0
  0
SPLINE
  5
145
100
AcDbEntity
  8
Body
 62
7
100
AcDbSpline
 70
8
 71
3
 72
8
 73
4
 74
0
 40
0
 40
0
 40
0
 40
0
 40
1
 40
1
 40
1
 40
1
 10
349.138228
 20
568.637422
 30
0.0
 10
349.138220
 20
577.610255
 30
0.0
 10
342.674532
 20
585.278381
 30
0.0
 10
333.831116
 20
586.796847
 30
0.0
  0
LWPOLYLINE
  5
146
100
AcDbEntity
  8
Body
 62
7
100
AcDbPolyline
 90
2
 70
0
 10
333.834866
 20
586.796344
 30
0.0
 10
333.834866
 20
611.157087
 30
0.0
  0
LWPOLYLINE
  5
147
100
AcDbEntity
  8
Body
 62
7
100
AcDbPolyline
 90
2
 70
0
 10
333.834866
 20
526.117611
 30
0.0
 10
333.834866
 20
550.478354
 30
0.0
  0
LWPOLYLINE
  5
148
100
AcDbEntity
  8
Body
 62
7
100
AcDbPolyline
 90
2
 70
0
 10
362.177358
 20
526.117611
 30
0.0
 10
333.834866
 20
526.117611
 30
0.0
  0
LWPOLYLINE
  5
149
100
AcDbEntity
  8
Body
 62
7
100
AcDbPolyline
 90
2
 70
0
 10
362.177358
 20
611.157087
 30
0.0
 10
362.177358
 20
526.117611
 30
0.0
  0
LWPOLYLINE
  5
14a
100
AcDbEntity
  8
Body
 62
7
100
AcDbPolyline
 90
2
 70
0
 10
333.834866
 20
767.062543
 30
0.0
 10
220.442398
 20
767.062543
 30
0.0
  0
LWPOLYLINE
  5
14b
100
AcDbEntity
  8
Body
 62
7
100
AcDbPolyline
 90
2
 70
0
 10
333.834866
 20
738.716077
 30
0.0
 10
220.442398
 20
738.716077
 30
0.0
  0
LWPOLYLINE
  5
14c
100
AcDbEntity
  8
Body
 62
7
100
AcDbPolyline
 90
2
 70
0
 10
333.834866
 20
738.716077
 30
0.0
 10
333.834866
 20
767.062543
 30
0.0
  0
LWPOLYLINE
  5
14d
100
AcDbEntity
  8
Body
 62
7
100
AcDbPolyline
 90
2
 70
0
 10
220.442398
 20
767.062543
 30
0.0
 10
220.442398
 20
738.716077
 30
0.0
  0
LWPOLYLINE
  5
14e
100
AcDbEntity
  8
Body
 62
7
100
AcDbPolyline
 90
3
 70
0
 10
362.177358
 20
269.015433
 30
0.0
 10
362.177358
 20
183.975957
 30
0.0
 10
333.834866
 20
183.975957
 30
0.0
  0
SPLINE
  5
14f
100
AcDbEntity
  8
Body
 62
7
100
AcDbSpline
 70
8
 71
3
 72
8
 73
4
 74
0
 40
0
 40
0
 40
0
 40
0
 40
1
 40
1
 40
1
 40
1
 10
333.831146
 20
208.336333
 30
0.0
 10
342.674559
 20
209.854813
 30
0.0
 10
349.138235
 20
217.522950
 30
0.0
 10
349.138228
 20
226.495783
 30
0.0
  0
SPLINE
  5
150
100
AcDbEntity
  8
Body
 62
7
100
AcDbSpline
 70
8
 71
3
 72
8
 73
4
 74
0
 40
0
 40
0
 40
0
 40
0
 40
1
 40
1
 40
1
 40
1
 10
349.138228
 20
226.495783
 30
0.0
 10
349.138220
 20
235.468616
 30
0.0
 10
342.674532
 20
243.136742
 30
0.0
 10
333.831116
 20
244.655208
 30
0.0
  0
LWPOLYLINE
  5
151
100
AcDbEntity
  8
Body
 62
7
100
AcDbPolyline
 90
2
 70
0
 10
333.834866
 20
208.336700
 30
0.0
 10
333.834866
 20
183.975957
 30
0.0
  0
LWPOLYLINE
  5
152
100
AcDbEntity
  8
Body
 62
7
100
AcDbPolyline
 90
2
 70
0
 10
333.834866
 20
269.015433
 30
0.0
 10
333.834866
 20
244.654690
 30
0.0
  0
LWPOLYLINE
  5
153
100
AcDbEntity
  8
Body
 62
7
100
AcDbPolyline
 90
2
 70
0
 10
333.834866
 20
269.015433
 30
0.0
 10
362.177358
 20
269.015433
 30
0.0
  0
LWPOLYLINE
  5
154
100
AcDbEntity
  8
Body
 62
7
100
AcDbPolyline
 90
5
 70
1
 10
333.834866
 20
526.117611
 30
0.0
 10
333.834866
 20
269.015433
 30
0.0
 10
333.834866
 20
269.015433
 30
0.0
 10
333.834866
 20
526.117611
 30
0.0
 10
333.834866
 20
526.117611
 30
0.0
  0
LWPOLYLINE
  5
155
100
AcDbEntity
  8
Body
 62
7
100
AcDbPolyline
 90
1
 70
1
 10
311.627373
 20
536.590608
 30
0.0
  0
LWPOLYLINE
  5
156
100
AcDbEntity
  8
Body
 62
7
100
AcDbPolyline
 90
2
 70
0
 10
333.834866
 20
526.117611
 30
0.0
 10
311.627373
 20
536.590608
 30
0.0
  0
LWPOLYLINE
  5
157
100
AcDbEntity
  8
Body
 62
7
100
AcDbPolyline
 90
2
 70
0
 10
333.834866
 20
526.117611
 30
0.0
 10
311.627373
 20
536.590608
 30
0.0
  0
LWPOLYLINE
  5
158
100
AcDbEntity
  8
Body
 62
7
100
AcDbPolyline
 90
1
 70
1
 10
311.627373
 20
600.684090
 30
0.0
  0
SPLINE
  5
159
100
AcDbEntity
  8
Body
 62
7
100
AcDbSpline
 70
8
 71
3
 72
8
 73
4
 74
0
 40
0
 40
0
 40
0
 40
0
 40
1
 40
1
 40
1
 40
1
 10
311.628220
 20
600.684225
 30
0.0
 10
299.224956
 20
594.833670
 30
0.0
 10
291.311441
 20
582.351170
 30
0.0
 10
291.311478
 20
568.637310
 30
0.0
  0
SPLINE
  5
15a
100
AcDbEntity
  8
Body
 62
7
100
AcDbSpline
 70
8
 71
3
 72
8
 73
4
 74
0
 40
0
 40
0
 40
0
 40
0
 40
1
 40
1
 40
1
 40
1
 10
291.311478
 20
568.637310
 30
0.0
 10
291.311515
 20
554.923450
 30
0.0
 10
299.225097
 20
542.440992
 30
0.0
 10
311.628393
 20
536.590503
 30
0.0
  0
SPLINE
  5
15b
100
AcDbEntity
  8
Body
 62
7
100
AcDbSpline
 70
8
 71
3
 72
8
 73
4
 74
0
 40
0
 40
0
 40
0
 40
0
 40
1
 40
1
 40
1
 40
1
 10
311.628220
 20
600.684225
 30
0.0
 10
299.224956
 20
594.833670
 30
0.0
 10
291.311441
 20
582.351170
 30
0.0
 10
291.311478
 20
568.637310
 30
0.0
  0
SPLINE
  5
15c
100
AcDbEntity
  8
Body
 62
7
100
AcDbSpline
 70
8
 71
3
 72
8
 73
4
 74
0
 40
0
 40
0
 40
0
 40
0
 40
1
 40
1
 40
1
 40
1
 10
291.311478
 20
568.637310
 30
0.0
 10
291.311515
 20
554.923450
 30
0.0
 10
299.225097
 20
542.440992
 30
0.0
 10
311.628393
 20
536.590503
 30
0.0
  0
LWPOLYLINE
  5
15d
100
AcDbEntity
  8
Body
 62
7
100
AcDbPolyline
 90
1
 70
1
 10
311.627373
 20
536.590608
 30
0.0
  0
SPLINE
  5
15e
100
AcDbEntity
  8
Body
 62
7
100
AcDbSpline
 70
8
 71
3
 72
8
 73
4
 74
0
 40
0
 40
0
 40
0
 40
0
 40
1
 40
1
 40
1
 40
1
 10
311.628220
 20
600.684225
 30
0.0
 10
299.224956
 20
594.833670
 30
0.0
 10
291.311441
 20
582.351170
 30
0.0
 10
291.311478
 20
568.637310
 30
0.0
  0
SPLINE
  5
15f
100
AcDbEntity
  8
Body
 62
7
100
AcDbSpline
 70
8
 71
3
 72
8
 73
4
 74
0
 40
0
 40
0
 40
0
 40
0
 40
1
 40
1
 40
1
 40
1
 10
291.311478
 20
568.637310
 30
0.0
 10
291.311515
 20
554.923450
 30
0.0
 10
299.225097
 20
542.440992
 30
0.0
 10
311.628393
 20
536.590503
 30
0.0
  0
LWPOLYLINE
  5
160
100
AcDbEntity
  8
Body
 62
7
100
AcDbPolyline
 90
2
 70
0
 10
333.834866
 20
526.117611
 30
0.0
 10
311.627373
 20
536.590608
 30
0.0
  0
LWPOLYLINE
  5
161
100
AcDbEntity
  8
Body
 62
7
100
AcDbPolyline
 90
2
 70
0
 10
333.834866
 20
611.157087
 30
0.0
 10
311.627373
 20
600.684090
 30
0.0
  0
SPLINE
  5
162
100
AcDbEntity
  8
Body
 62
7
100
AcDbSpline
 70
8
 71
3
 72
8
 73
4
 74
0
 40
0
 40
0
 40
0
 40
0
 40
1
 40
1
 40
1
 40
1
 10
333.831116
 20
586.796847
 30
0.0
 10
326.974203
 20
587.974222
 30
0.0
 10
320.038802
 20
585.188907
 30
0.0
 10
315.900919
 20
579.595929
 30
0.0
  0
SPLINE
  5
163
100
AcDbEntity
  8
Body
 62
7
100
AcDbSpline
 70
8
 71
3
 72
8
 73
4
 74
0
 40
0
 40
0
 40
0
 40
0
 40
1
 40
1
 40
1
 40
1
 10
315.900919
 20
579.595929
 30
0.0
 10
311.763036
 20
574.002952
 30
0.0
 10
311.128351
 20
566.556144
 30
0.0
 10
314.260057
 20
560.343585
 30
0.0
  0
SPLINE
  5
164
100
AcDbEntity
  8
Body
 62
7
100
AcDbSpline
 70
8
 71
3
 72
8
 73
4
 74
0
 40
0
 40
0
 40
0
 40
0
 40
1
 40
1
 40
1
 40
1
 10
314.260057
 20
560.343585
 30
0.0
 10
317.391763
 20
554.131026
 30
0.0
 10
323.755777
 20
550.212212
 30
0.0
 10
330.713037
 20
550.212217
 30
0.0
  0
SPLINE
  5
165
100
AcDbEntity
  8
Body
 62
7
100
AcDbSpline
 70
8
 71
3
 72
8
 73
4
 74
0
 40
0
 40
0
 40
0
 40
0
 40
1
 40
1
 40
1
 40
1
 10
330.713037
 20
550.212217
 30
0.0
 10
331.758063
 20
550.212216
 30
0.0
 10
332.801194
 20
550.301122
 30
0.0
 10
333.831146
 20
550.477972
 30
0.0
  0
LWPOLYLINE
  5
166
100
AcDbEntity
  8
Body
 62
7
100
AcDbPolyline
 90
2
 70
0
 10
333.834866
 20
586.796344
 30
0.0
 10
333.834866
 20
611.157087
 30
0.0
  0
LWPOLYLINE
  5
167
100
AcDbEntity
  8
Body
 62
7
100
AcDbPolyline
 90
2
 70
0
 10
333.834866
 20
526.117611
 30
0.0
 10
333.834866
 20
550.478354
 30
0.0
  0
LWPOLYLINE
  5
168
100
AcDbEntity
  8
Body
 62
7
100
AcDbPolyline
 90
1
 70
1
 10
362.177358
 20
269.015433
 30
0.0
  0
LWPOLYLINE
  5
169
100
AcDbEntity
  8
Body
 62
7
100
AcDbPolyline
 90
1
 70
1
 10
362.177358
 20
183.975957
 30
0.0
  0
LWPOLYLINE
  5
16a
100
AcDbEntity
  8
Body
 62
7
100
AcDbPolyline
 90
2
 70
0
 10
362.177358
 20
269.015433
 30
0.0
 10
362.177358
 20
183.975957
 30
0.0
  0
LWPOLYLINE
  5
16b
100
AcDbEntity
  8
Body
 62
7
100
AcDbPolyline
 90
2
 70
0
 10
362.177358
 20
269.015433
 30
0.0
 10
362.177358
 20
183.975957
 30
0.0
  0
LWPOLYLINE
  5
16c
100
AcDbEntity
  8
Body
 62
7
100
AcDbPolyline
 90
3
 70
0
 10
362.177358
 20
269.015433
 30
0.0
 10
362.177358
 20
526.117611
 30
0.0
 10
333.834866
 20
526.117611
 30
0.0
  0
LWPOLYLINE
  5
16d
100
AcDbEntity
  8
Body
 62
7
100
AcDbPolyline
 90
2
 70
0
 10
333.834866
 20
269.015433
 30
0.0
 10
333.834866
 20
526.117611
 30
0.0
  0
LWPOLYLINE
  5
16e
100
AcDbEntity
  8
Body
 62
7
100
AcDbPolyline
 90
2
 70
0
 10
333.834866
 20
269.015433
 30
0.0
 10
362.177358
 20
269.015433
 30
0.0
  0
LWPOLYLINE
  5
16f
100
AcDbEntity
  8
Body
 62
7
100
AcDbPolyline
 90
3
 70
0
 10
362.177358
 20
183.975957
 30
0.0
 10
362.177358
 20
134.936471
 30
0.0
 10
333.834866
 20
134.936471
 30
0.0
  0
LWPOLYLINE
  5
170
100
AcDbEntity
  8
Body
 62
7
100
AcDbPolyline
 90
2
 70
0
 10
333.834866
 20
183.975957
 30
0.0
 10
333.834866
 20
134.936471
 30
0.0
  0
LWPOLYLINE
  5
171
100
AcDbEntity
  8
Body
 62
7
100
AcDbPolyline
 90
2
 70
0
 10
362.177358
 20
183.975957
 30
0.0
 10
333.834866
 20
183.975957
 30
0.0
  0
SPLINE
  5
172
100
AcDbEntity
  8
Body
 62
7
100
AcDbSpline
 70
8
 71
3
 72
8
 73
4
 74
0
 40
0
 40
0
 40
0
 40
0
 40
1
 40
1
 40
1
 40
1
 10
333.831116
 20
244.655208
 30
0.0
 10
326.974203
 20
245.832583
 30
0.0
 10
320.038802
 20
243.047268
 30
0.0
 10
315.900919
 20
237.454290
 30
0.0
  0
SPLINE
  5
173
100
AcDbEntity
  8
Body
 62
7
100
AcDbSpline
 70
8
 71
3
 72
8
 73
4
 74
0
 40
0
 40
0
 40
0
 40
0
 40
1
 40
1
 40
1
 40
1
 10
315.900919
 20
237.454290
 30
0.0
 10
311.763036
 20
231.861313
 30
0.0
 10
311.128351
 20
224.414505
 30
0.0
 10
314.260057
 20
218.201946
 30
0.0
  0
SPLINE
  5
174
100
AcDbEntity
  8
Body
 62
7
100
AcDbSpline
 70
8
 71
3
 72
8
 73
4
 74
0
 40
0
 40
0
 40
0
 40
0
 40
1
 40
1
 40
1
 40
1
 10
314.260057
 20
218.201946
 30
0.0
 10
317.391763
 20
211.989387
 30
0.0
 10
323.755777
 20
208.070573
 30
0.0
 10
330.713037
 20
208.070578
 30
0.0
  0
SPLINE
  5
175
100
AcDbEntity
  8
Body
 62
7
100
AcDbSpline
 70
8
 71
3
 72
8
 73
4
 74
0
 40
0
 40
0
 40
0
 40
0
 40
1
 40
1
 40
1
 40
1
 10
330.713037
 20
208.070578
 30
0.0
 10
331.758063
 20
208.070577
 30
0.0
 10
332.801194
 20
208.159483
 30
0.0
 10
333.831146
 20
208.336333
 30
0.0
  0
LWPOLYLINE
  5
176
100
AcDbEntity
  8
Body
 62
7
100
AcDbPolyline
 90
3
 70
0
 10
311.627373
 20
258.541686
 30
0.0
 10
333.834866
 20
269.015433
 30
0.0
 10
333.834866
 20
244.654690
 30
0.0
  0
SPLINE
  5
177
100
AcDbEntity
  8
Body
 62
7
100
AcDbSpline
 70
8
 71
3
 72
8
 73
4
 74
0
 40
0
 40
0
 40
0
 40
0
 40
1
 40
1
 40
1
 40
1
 10
311.628220
 20
258.542594
 30
0.0
 10
299.224952
 20
252.692040
 30
0.0
 10
291.311433
 20
240.209538
 30
0.0
 10
291.311470
 20
226.495674
 30
0.0
  0
SPLINE
  5
178
100
AcDbEntity
  8
Body
 62
7
100
AcDbSpline
 70
8
 71
3
 72
8
 73
4
 74
0
 40
0
 40
0
 40
0
 40
0
 40
1
 40
1
 40
1
 40
1
 10
291.311470
 20
226.495674
 30
0.0
 10
291.311507
 20
212.781811
 30
0.0
 10
299.225093
 20
200.299351
 30
0.0
 10
311.628393
 20
194.448864
 30
0.0
  0
LWPOLYLINE
  5
179
100
AcDbEntity
  8
Body
 62
7
100
AcDbPolyline
 90
3
 70
0
 10
333.834866
 20
208.336700
 30
0.0
 10
333.834866
 20
183.975957
 30
0.0
 10
311.627373
 20
194.450454
 30
0.0
  0
SPLINE
  5
17a
100
AcDbEntity
  8
Body
 62
7
100
AcDbSpline
 70
8
 71
3
 72
8
 73
4
 74
0
 40
0
 40
0
 40
0
 40
0
 40
1
 40
1
 40
1
 40
1
 10
330.713037
 20
208.070578
 30
0.0
 10
331.758063
 20
208.070577
 30
0.0
 10
332.801194
 20
208.159483
 30
0.0
 10
333.831146
 20
208.336333
 30
0.0
  0
SPLINE
  5
17b
100
AcDbEntity
  8
Body
 62
7
100
AcDbSpline
 70
8
 71
3
 72
8
 73
4
 74
0
 40
0
 40
0
 40
0
 40
0
 40
1
 40
1
 40
1
 40
1
 10
333.831146
 20
208.336333
 30
0.0
 10
342.674559
 20
209.854813
 30
0.0
 10
349.138235
 20
217.522950
 30
0.0
 10
349.138228
 20
226.495783
 30
0.0
  0
SPLINE
  5
17c
100
AcDbEntity
  8
Body
 62
7
100
AcDbSpline
 70
8
 71
3
 72
8
 73
4
 74
0
 40
0
 40
0
 40
0
 40
0
 40
1
 40
1
 40
1
 40
1
 10
349.138228
 20
226.495783
 30
0.0
 10
349.138220
 20
235.468616
 30
0.0
 10
342.674532
 20
243.136742
 30
0.0
 10
333.831116
 20
244.655208
 30
0.0
  0
SPLINE
  5
17d
100
AcDbEntity
  8
Body
 62
7
100
AcDbSpline
 70
8
 71
3
 72
8
 73
4
 74
0
 40
0
 40
0
 40
0
 40
0
 40
1
 40
1
 40
1
 40
1
 10
333.831116
 20
244.655208
 30
0.0
 10
326.974203
 20
245.832583
 30
0.0
 10
320.038802
 20
243.047268
 30
0.0
 10
315.900919
 20
237.454290
 30
0.0
  0
SPLINE
  5
17e
100
AcDbEntity
  8
Body
 62
7
100
AcDbSpline
 70
8
 71
3
 72
8
 73
4
 74
0
 40
0
 40
0
 40
0
 40
0
 40
1
 40
1
 40
1
 40
1
 10
315.900919
 20
237.454290
 30
0.0
 10
311.763036
 20
231.861313
 30
0.0
 10
311.128351
 20
224.414505
 30
0.0
 10
314.260057
 20
218.201946
 30
0.0
  0
SPLINE
  5
17f
100
AcDbEntity
  8
Body
 62
7
100
AcDbSpline
 70
8
 71
3
 72
8
 73
4
 74
0
 40
0
 40
0
 40
0
 40
0
 40
1
 40
1
 40
1
 40
1
 10
314.260057
 20
218.201946
 30
0.0
 10
317.391763
 20
211.989387
 30
0.0
 10
323.755777
 20
208.070573
 30
0.0
 10
330.713037
 20
208.070578
 30
0.0
  0
SPLINE
  5
180
100
AcDbEntity
  8
Body
 62
7
100
AcDbSpline
 70
8
 71
3
 72
8
 73
4
 74
0
 40
0
 40
0
 40
0
 40
0
 40
1
 40
1
 40
1
 40
1
 10
333.831116
 20
244.655208
 30
0.0
 10
326.974203
 20
245.832583
 30
0.0
 10
320.038802
 20
243.047268
 30
0.0
 10
315.900919
 20
237.454290
 30
0.0
  0
SPLINE
  5
181
100
AcDbEntity
  8
Body
 62
7
100
AcDbSpline
 70
8
 71
3
 72
8
 73
4
 74
0
 40
0
 40
0
 40
0
 40
0
 40
1
 40
1
 40
1
 40
1
 10
315.900919
 20
237.454290
 30
0.0
 10
311.763036
 20
231.861313
 30
0.0
 10
311.128351
 20
224.414505
 30
0.0
 10
314.260057
 20
218.201946
 30
0.0
  0
SPLINE
  5
182
100
AcDbEntity
  8
Body
 62
7
100
AcDbSpline
 70
8
 71
3
 72
8
 73
4
 74
0
 40
0
 40
0
 40
0
 40
0
 40
1
 40
1
 40
1
 40
1
 10
314.260057
 20
218.201946
 30
0.0
 10
317.391763
 20
211.989387
 30
0.0
 10
323.755777
 20
208.070573
 30
0.0
 10
330.713037
 20
208.070578
 30
0.0
  0
SPLINE
  5
183
100
AcDbEntity
  8
Body
 62
7
100
AcDbSpline
 70
8
 71
3
 72
8
 73
4
 74
0
 40
0
 40
0
 40
0
 40
0
 40
1
 40
1
 40
1
 40
1
 10
333.831146
 20
208.336333
 30
0.0
 10
342.674559
 20
209.854813
 30
0.0
 10
349.138235
 20
217.522950
 30
0.0
 10
349.138228
 20
226.495783
 30
0.0
  0
SPLINE
  5
184
100
AcDbEntity
  8
Body
 62
7
100
AcDbSpline
 70
8
 71
3
 72
8
 73
4
 74
0
 40
0
 40
0
 40
0
 40
0
 40
1
 40
1
 40
1
 40
1
 10
349.138228
 20
226.495783
 30
0.0
 10
349.138220
 20
235.468616
 30
0.0
 10
342.674532
 20
243.136742
 30
0.0
 10
333.831116
 20
244.655208
 30
0.0
  0
SPLINE
  5
185
100
AcDbEntity
  8
Body
 62
7
100
AcDbSpline
 70
8
 71
3
 72
8
 73
4
 74
0
 40
0
 40
0
 40
0
 40
0
 40
1
 40
1
 40
1
 40
1
 10
330.713037
 20
208.070578
 30
0.0
 10
331.758063
 20
208.070577
 30
0.0
 10
332.801194
 20
208.159483
 30
0.0
 10
333.831146
 20
208.336333
 30
0.0
  0
LWPOLYLINE
  5
186
100
AcDbEntity
  8
Body
 62
7
100
AcDbPolyline
 90
2
 70
1
 10
330.714867
 20
208.070450
 30
0.0
 10
330.714867
 20
208.070450
 30
0.0
  0
LWPOLYLINE
  5
187
100
AcDbEntity
  8
Body
 62
7
100
AcDbPolyline
 90
1
 70
1
 10
311.627373
 20
258.541686
 30
0.0
  0
LWPOLYLINE
  5
188
100
AcDbEntity
  8
Body
 62
7
100
AcDbPolyline
 90
1
 70
1
 10
333.834866
 20
269.015433
 30
0.0
  0
LWPOLYLINE
  5
189
100
AcDbEntity
  8
Body
 62
7
100
AcDbPolyline
 90
2
 70
0
 10
311.627373
 20
258.541686
 30
0.0
 10
333.834866
 20
269.015433
 30
0.0
  0
LWPOLYLINE
  5
18a
100
AcDbEntity
  8
Body
 62
7
100
AcDbPolyline
 90
2
 70
0
 10
311.627373
 20
258.541686
 30
0.0
 10
333.834866
 20
269.015433
 30
0.0
  0
LWPOLYLINE
  5
18b
100
AcDbEntity
  8
Body
 62
7
100
AcDbPolyline
 90
6
 70
1
 10
362.177358
 20
183.975957
 30
0.0
 10
362.177358
 20
134.936471
 30
0.0
 10
362.177358
 20
121.897725
 30
0.0
 10
362.177358
 20
94.049482
 30
0.0
 10
362.177358
 20
111.471228
 30
0.0
 10
362.177358
 20
183.975957
 30
0.0
  0
LWPOLYLINE
  5
18c
100
AcDbEntity
  8
Body
 62
7
100
AcDbPolyline
 90
2
 70
0
 10
333.834866
 20
269.015433
 30
0.0
 10
362.177358
 20
269.015433
 30
0.0
  0
SPLINE
  5
18d
100
AcDbEntity
  8
Body
 62
7
100
AcDbSpline
 70
8
 71
3
 72
8
 73
4
 74
0
 40
0
 40
0
 40
0
 40
0
 40
1
 40
1
 40
1
 40
1
 10
333.831146
 20
208.336333
 30
0.0
 10
342.674559
 20
209.854813
 30
0.0
 10
349.138235
 20
217.522950
 30
0.0
 10
349.138228
 20
226.495783
 30
0.0
  0
SPLINE
  5
18e
100
AcDbEntity
  8
Body
 62
7
100
AcDbSpline
 70
8
 71
3
 72
8
 73
4
 74
0
 40
0
 40
0
 40
0
 40
0
 40
1
 40
1
 40
1
 40
1
 10
349.138228
 20
226.495783
 30
0.0
 10
349.138220
 20
235.468616
 30
0.0
 10
342.674532
 20
243.136742
 30
0.0
 10
333.831116
 20
244.655208
 30
0.0
  0
LWPOLYLINE
  5
18f
100
AcDbEntity
  8
Body
 62
7
100
AcDbPolyline
 90
2
 70
0
 10
333.834866
 20
244.654690
 30
0.0
 10
333.834866
 20
269.015433
 30
0.0
  0
LWPOLYLINE
  5
190
100
AcDbEntity
  8
Body
 62
7
100
AcDbPolyline
 90
2
 70
0
 10
333.834866
 20
183.975957
 30
0.0
 10
333.834866
 20
208.336700
 30
0.0
  0
LWPOLYLINE
  5
191
100
AcDbEntity
  8
Body
 62
7
100
AcDbPolyline
 90
2
 70
0
 10
362.177358
 20
183.975957
 30
0.0
 10
333.834866
 20
183.975957
 30
0.0
  0
LWPOLYLINE
  5
192
100
AcDbEntity
  8
Body
 62
7
100
AcDbPolyline
 90
2
 70
0
 10
362.177358
 20
269.015433
 30
0.0
 10
362.177358
 20
183.975957
 30
0.0
  0
LWPOLYLINE
  5
193
100
AcDbEntity
  8
Body
 62
7
100
AcDbPolyline
 90
2
 70
0
 10
362.177358
 20
134.936471
 30
0.0
 10
333.834866
 20
134.936471
 30
0.0
  0
LWPOLYLINE
  5
194
100
AcDbEntity
  8
Body
 62
7
100
AcDbPolyline
 90
2
 70
0
 10
362.177358
 20
121.897725
 30
0.0
 10
333.834866
 20
121.897725
 30
0.0
  0
LWPOLYLINE
  5
195
100
AcDbEntity
  8
Body
 62
7
100
AcDbPolyline
 90
2
 70
0
 10
362.177358
 20
134.936471
 30
0.0
 10
362.177358
 20
121.897725
 30
0.0
  0
LWPOLYLINE
  5
196
100
AcDbEntity
  8
Body
 62
7
100
AcDbPolyline
 90
2
 70
0
 10
333.834866
 20
134.936471
 30
0.0
 10
333.834866
 20
121.897725
 30
0.0
  0
LWPOLYLINE
  5
197
100
AcDbEntity
  8
Body
 62
7
100
AcDbPolyline
 90
5
 70
1
 10
333.834866
 20
183.975957
 30
0.0
 10
333.834866
 20
134.936471
 30
0.0
 10
333.834866
 20
134.936471
 30
0.0
 10
333.834866
 20
183.975957
 30
0.0
 10
333.834866
 20
183.975957
 30
0.0
  0
LWPOLYLINE
  5
198
100
AcDbEntity
  8
Body
 62
7
100
AcDbPolyline
 90
1
 70
1
 10
311.627373
 20
194.450454
 30
0.0
  0
LWPOLYLINE
  5
199
100
AcDbEntity
  8
Body
 62
7
100
AcDbPolyline
 90
2
 70
0
 10
333.834866
 20
183.975957
 30
0.0
 10
311.627373
 20
194.450454
 30
0.0
  0
LWPOLYLINE
  5
19a
100
AcDbEntity
  8
Body
 62
7
100
AcDbPolyline
 90
2
 70
0
 10
333.834866
 20
183.975957
 30
0.0
 10
311.627373
 20
194.450454
 30
0.0
  0
LWPOLYLINE
  5
19b
100
AcDbEntity
  8
Body
 62
7
100
AcDbPolyline
 90
1
 70
1
 10
311.627373
 20
258.541686
 30
0.0
  0
SPLINE
  5
19c
100
AcDbEntity
  8
Body
 62
7
100
AcDbSpline
 70
8
 71
3
 72
8
 73
4
 74
0
 40
0
 40
0
 40
0
 40
0
 40
1
 40
1
 40
1
 40
1
 10
311.628220
 20
258.542594
 30
0.0
 10
299.224952
 20
252.692040
 30
0.0
 10
291.311433
 20
240.209538
 30
0.0
 10
291.311470
 20
226.495674
 30
0.0
  0
SPLINE
  5
19d
100
AcDbEntity
  8
Body
 62
7
100
AcDbSpline
 70
8
 71
3
 72
8
 73
4
 74
0
 40
0
 40
0
 40
0
 40
0
 40
1
 40
1
 40
1
 40
1
 10
291.311470
 20
226.495674
 30
0.0
 10
291.311507
 20
212.781811
 30
0.0
 10
299.225093
 20
200.299351
 30
0.0
 10
311.628393
 20
194.448864
 30
0.0
  0
SPLINE
  5
19e
100
AcDbEntity
  8
Body
 62
7
100
AcDbSpline
 70
8
 71
3
 72
8
 73
4
 74
0
 40
0
 40
0
 40
0
 40
0
 40
1
 40
1
 40
1
 40
1
 10
311.628220
 20
258.542594
 30
0.0
 10
299.224952
 20
252.692040
 30
0.0
 10
291.311433
 20
240.209538
 30
0.0
 10
291.311470
 20
226.495674
 30
0.0
  0
SPLINE
  5
19f
100
AcDbEntity
  8
Body
 62
7
100
AcDbSpline
 70
8
 71
3
 72
8
 73
4
 74
0
 40
0
 40
0
 40
0
 40
0
 40
1
 40
1
 40
1
 40
1
 10
291.311470
 20
226.495674
 30
0.0
 10
291.311507
 20
212.781811
 30
0.0
 10
299.225093
 20
200.299351
 30
0.0
 10
311.628393
 20
194.448864
 30
0.0
  0
LWPOLYLINE
  5
1a0
100
AcDbEntity
  8
Body
 62
7
100
AcDbPolyline
 90
1
 70
1
 10
311.627373
 20
194.450454
 30
0.0
  0
LWPOLYLINE
  5
1a1
100
AcDbEntity
  8
Body
 62
7
100
AcDbPolyline
 90
2
 70
0
 10
311.627373
 20
258.541686
 30
0.0
 10
333.834866
 20
269.015433
 30
0.0
  0
SPLINE
  5
1a2
100
AcDbEntity
  8
Body
 62
7
100
AcDbSpline
 70
8
 71
3
 72
8
 73
4
 74
0
 40
0
 40
0
 40
0
 40
0
 40
1
 40
1
 40
1
 40
1
 10
333.831116
 20
244.655208
 30
0.0
 10
326.974203
 20
245.832583
 30
0.0
 10
320.038802
 20
243.047268
 30
0.0
 10
315.900919
 20
237.454290
 30
0.0
  0
SPLINE
  5
1a3
100
AcDbEntity
  8
Body
 62
7
100
AcDbSpline
 70
8
 71
3
 72
8
 73
4
 74
0
 40
0
 40
0
 40
0
 40
0
 40
1
 40
1
 40
1
 40
1
 10
315.900919
 20
237.454290
 30
0.0
 10
311.763036
 20
231.861313
 30
0.0
 10
311.128351
 20
224.414505
 30
0.0
 10
314.260057
 20
218.201946
 30
0.0
  0
SPLINE
  5
1a4
100
AcDbEntity
  8
Body
 62
7
100
AcDbSpline
 70
8
 71
3
 72
8
 73
4
 74
0
 40
0
 40
0
 40
0
 40
0
 40
1
 40
1
 40
1
 40
1
 10
314.260057
 20
218.201946
 30
0.0
 10
317.391763
 20
211.989387
 30
0.0
 10
323.755777
 20
208.070573
 30
0.0
 10
330.713037
 20
208.070578
 30
0.0
  0
SPLINE
  5
1a5
100
AcDbEntity
  8
Body
 62
7
100
AcDbSpline
 70
8
 71
3
 72
8
 73
4
 74
0
 40
0
 40
0
 40
0
 40
0
 40
1
 40
1
 40
1
 40
1
 10
330.713037
 20
208.070578
 30
0.0
 10
331.758063
 20
208.070577
 30
0.0
 10
332.801194
 20
208.159483
 30
0.0
 10
333.831146
 20
208.336333
 30
0.0
  0
LWPOLYLINE
  5
1a6
100
AcDbEntity
  8
Body
 62
7
100
AcDbPolyline
 90
2
 70
0
 10
333.834866
 20
244.654690
 30
0.0
 10
333.834866
 20
269.015433
 30
0.0
  0
LWPOLYLINE
  5
1a7
100
AcDbEntity
  8
Body
 62
7
100
AcDbPolyline
 90
2
 70
0
 10
333.834866
 20
183.975957
 30
0.0
 10
333.834866
 20
208.336700
 30
0.0
  0
SPLINE
  5
1a8
100
AcDbEntity
  8
Body
 62
7
100
AcDbSpline
 70
8
 71
3
 72
8
 73
4
 74
0
 40
0
 40
0
 40
0
 40
0
 40
1
 40
1
 40
1
 40
1
 10
311.628220
 20
258.542594
 30
0.0
 10
299.224952
 20
252.692040
 30
0.0
 10
291.311433
 20
240.209538
 30
0.0
 10
291.311470
 20
226.495674
 30
0.0
  0
SPLINE
  5
1a9
100
AcDbEntity
  8
Body
 62
7
100
AcDbSpline
 70
8
 71
3
 72
8
 73
4
 74
0
 40
0
 40
0
 40
0
 40
0
 40
1
 40
1
 40
1
 40
1
 10
291.311470
 20
226.495674
 30
0.0
 10
291.311507
 20
212.781811
 30
0.0
 10
299.225093
 20
200.299351
 30
0.0
 10
311.628393
 20
194.448864
 30
0.0
  0
LWPOLYLINE
  5
1aa
100
AcDbEntity
  8
Body
 62
7
100
AcDbPolyline
 90
2
 70
0
 10
333.834866
 20
183.975957
 30
0.0
 10
311.627373
 20
194.450454
 30
0.0
  0
LWPOLYLINE
  5
1ab
100
AcDbEntity
  8
Body
 62
7
100
AcDbPolyline
 90
2
 70
0
 10
362.177358
 20
121.897725
 30
0.0
 10
333.834866
 20
121.897725
 30
0.0
  0
LWPOLYLINE
  5
1ac
100
AcDbEntity
  8
Body
 62
7
100
AcDbPolyline
 90
2
 70
0
 10
362.177358
 20
94.049482
 30
0.0
 10
333.834866
 20
94.049482
 30
0.0
  0
LWPOLYLINE
  5
1ad
100
AcDbEntity
  8
Body
 62
7
100
AcDbPolyline
 90
2
 70
0
 10
362.177358
 20
121.897725
 30
0.0
 10
362.177358
 20
94.049482
 30
0.0
  0
LWPOLYLINE
  5
1ae
100
AcDbEntity
  8
Body
 62
7
100
AcDbPolyline
 90
2
 70
0
 10
333.834866
 20
121.897725
 30
0.0
 10
333.834866
 20
94.049482
 30
0.0
  0
LWPOLYLINE
  5
1af
100
AcDbEntity
  8
Body
 62
7
100
AcDbPolyline
 90
2
 70
0
 10
362.177358
 20
94.049482
 30
0.0
 10
333.834866
 20
94.049482
 30
0.0
  0
LWPOLYLINE
  5
1b0
100
AcDbEntity
  8
Body
 62
7
100
AcDbPolyline
 90
2
 70
0
 10
362.177358
 20
111.471228
 30
0.0
 10
333.834866
 20
111.471228
 30
0.0
  0
LWPOLYLINE
  5
1b1
100
AcDbEntity
  8
Body
 62
7
100
AcDbPolyline
 90
2
 70
0
 10
362.177358
 20
94.049482
 30
0.0
 10
362.177358
 20
111.471228
 30
0.0
  0
LWPOLYLINE
  5
1b2
100
AcDbEntity
  8
Body
 62
7
100
AcDbPolyline
 90
2
 70
0
 10
333.834866
 20
94.049482
 30
0.0
 10
333.834866
 20
111.471228
 30
0.0
  0
LWPOLYLINE
  5
1b3
100
AcDbEntity
  8
Body
 62
7
100
AcDbPolyline
 90
3
 70
0
 10
362.177358
 20
111.471228
 30
0.0
 10
362.177358
 20
183.975957
 30
0.0
 10
333.834866
 20
183.975957
 30
0.0
  0
LWPOLYLINE
  5
1b4
100
AcDbEntity
  8
Body
 62
7
100
AcDbPolyline
 90
2
 70
0
 10
333.834866
 20
134.936471
 30
0.0
 10
333.834866
 20
183.975957
 30
0.0
  0
LWPOLYLINE
  5
1b5
100
AcDbEntity
  8
Body
 62
7
100
AcDbPolyline
 90
2
 70
0
 10
333.834866
 20
111.471228
 30
0.0
 10
333.834866
 20
134.936471
 30
0.0
  0
LWPOLYLINE
  5
1b6
100
AcDbEntity
  8
Body
 62
7
100
AcDbPolyline
 90
2
 70
0
 10
362.177358
 20
111.471228
 30
0.0
 10
333.834866
 20
111.471228
 30
0.0
  0
LWPOLYLINE
  5
1b7
100
AcDbEntity
  8
Body
 62
7
100
AcDbPolyline
 90
2
 70
0
 10
333.834866
 20
134.936471
 30
0.0
 10
220.442398
 20
134.936471
 30
0.0
  0
LWPOLYLINE
  5
1b8
100
AcDbEntity
  8
Body
 62
7
100
AcDbPolyline
 90
2
 70
0
 10
333.834866
 20
121.897725
 30
0.0
 10
220.442398
 20
121.897725
 30
0.0
  0
LWPOLYLINE
  5
1b9
100
AcDbEntity
  8
Body
 62
7
100
AcDbPolyline
 90
2
 70
0
 10
333.834866
 20
134.936471
 30
0.0
 10
333.834866
 20
121.897725
 30
0.0
  0
LWPOLYLINE
  5
1ba
100
AcDbEntity
  8
Body
 62
7
100
AcDbPolyline
 90
2
 70
0
 10
220.442398
 20
134.936471
 30
0.0
 10
220.442398
 20
121.897725
 30
0.0
  0
LWPOLYLINE
  5
1bb
100
AcDbEntity
  8
Body
 62
7
100
AcDbPolyline
 90
2
 70
0
 10
333.834866
 20
134.936471
 30
0.0
 10
220.442398
 20
134.936471
 30
0.0
  0
LWPOLYLINE
  5
1bc
100
AcDbEntity
  8
Body
 62
7
100
AcDbPolyline
 90
2
 70
0
 10
333.834866
 20
134.936471
 30
0.0
 10
220.442398
 20
134.936471
 30
0.0
  0
LWPOLYLINE
  5
1bd
100
AcDbEntity
  8
Body
 62
7
100
AcDbPolyline
 90
1
 70
1
 10
333.834866
 20
134.936471
 30
0.0
  0
LWPOLYLINE
  5
1be
100
AcDbEntity
  8
Body
 62
7
100
AcDbPolyline
 90
1
 70
1
 10
220.442398
 20
134.936471
 30
0.0
  0
LWPOLYLINE
  5
1bf
100
AcDbEntity
  8
Body
 62
7
100
AcDbPolyline
 90
2
 70
0
 10
333.834866
 20
121.897725
 30
0.0
 10
220.442398
 20
121.897725
 30
0.0
  0
LWPOLYLINE
  5
1c0
100
AcDbEntity
  8
Body
 62
7
100
AcDbPolyline
 90
2
 70
0
 10
333.834866
 20
94.049482
 30
0.0
 10
220.442398
 20
94.049482
 30
0.0
  0
LWPOLYLINE
  5
1c1
100
AcDbEntity
  8
Body
 62
7
100
AcDbPolyline
 90
2
 70
0
 10
333.834866
 20
121.897725
 30
0.0
 10
333.834866
 20
94.049482
 30
0.0
  0
LWPOLYLINE
  5
1c2
100
AcDbEntity
  8
Body
 62
7
100
AcDbPolyline
 90
2
 70
0
 10
220.442398
 20
121.897725
 30
0.0
 10
220.442398
 20
94.049482
 30
0.0
  0
LWPOLYLINE
  5
1c3
100
AcDbEntity
  8
Body
 62
7
100
AcDbPolyline
 90
2
 70
0
 10
333.834866
 20
94.049482
 30
0.0
 10
220.442398
 20
94.049482
 30
0.0
  0
LWPOLYLINE
  5
1c4
100
AcDbEntity
  8
Body
 62
7
100
AcDbPolyline
 90
2
 70
0
 10
333.834866
 20
111.471228
 30
0.0
 10
220.442398
 20
111.471228
 30
0.0
  0
LWPOLYLINE
  5
1c5
100
AcDbEntity
  8
Body
 62
7
100
AcDbPolyline
 90
2
 70
0
 10
333.834866
 20
94.049482
 30
0.0
 10
333.834866
 20
111.471228
 30
0.0
  0
LWPOLYLINE
  5
1c6
100
AcDbEntity
  8
Body
 62
7
100
AcDbPolyline
 90
2
 70
0
 10
220.442398
 20
94.049482
 30
0.0
 10
220.442398
 20
111.471228
 30
0.0
  0
LWPOLYLINE
  5
1c7
100
AcDbEntity
  8
Body
 62
7
100
AcDbPolyline
 90
2
 70
0
 10
333.834866
 20
134.936471
 30
0.0
 10
220.442398
 20
134.936471
 30
0.0
  0
LWPOLYLINE
  5
1c8
100
AcDbEntity
  8
Body
 62
7
100
AcDbPolyline
 90
2
 70
0
 10
333.834866
 20
111.471228
 30
0.0
 10
220.442398
 20
111.471228
 30
0.0
  0
LWPOLYLINE
  5
1c9
100
AcDbEntity
  8
Body
 62
7
100
AcDbPolyline
 90
2
 70
0
 10
333.834866
 20
111.471228
 30
0.0
 10
333.834866
 20
134.936471
 30
0.0
  0
LWPOLYLINE
  5
1ca
100
AcDbEntity
  8
Body
 62
7
100
AcDbPolyline
 90
2
 70
0
 10
220.442398
 20
134.936471
 30
0.0
 10
220.442398
 20
111.471228
 30
0.0
  0
LWPOLYLINE
  5
1cb
100
AcDbEntity
  8
Body
 62
7
100
AcDbPolyline
 90
4
 70
0
 10
220.442398
 20
134.936471
 30
0.0
 10
220.442398
 20
121.897725
 30
0.0
 10
220.442398
 20
94.049482
 30
0.0
 10
220.442398
 20
111.471228
 30
0.0
  0
LWPOLYLINE
  5
1cc
100
AcDbEntity
  8
Body
 62
7
100
AcDbPolyline
 90
2
 70
0
 10
220.442398
 20
134.936471
 30
0.0
 10
220.442398
 20
111.471228
 30
0.0
  0
LWPOLYLINE
  5
1cd
100
AcDbEntity
  8
Body
 62
7
100
AcDbPolyline
 90
1
 70
1
 10
220.442398
 20
134.936471
 30
0.0
  0
ENDSEC
  0
SECTION
  2
OBJECTS
  0
DICTIONARY
  5
C
330
0
100
AcDbDictionary
  3
ACAD_GROUP
350
D
  3
ACAD_MLINESTYLE
350
17
  0
DICTIONARY
  5
D
330
C
100
AcDbDictionary
  0
DICTIONARY
  5
1A
330
C
100
AcDbDictionary
  0
DICTIONARY
  5
17
330
C
100
AcDbDictionary
  3
STANDARD
350
18
  0
DICTIONARY
  5
19
330
C
100
AcDbDictionary
  0
ENDSEC
  0
EOF
